<svg version="1.1" id="Layer_1" xmlns="http://www.w3.org/2000/svg" xmlns:xlink="http://www.w3.org/1999/xlink" x="0px" y="0px"
	 width="100%" viewBox="0 0 128 128" enable-background="new 0 0 128 128" xml:space="preserve">
<path fill="#000000" opacity="1.000000" stroke="none" 
	d="
M1.000000,49.000000 
	C1.000000,33.666668 1.068968,18.832701 0.932833,4.000617 
	C0.909858,1.497446 1.500242,0.930377 4.000143,0.935937 
	C44.666611,1.026383 85.333397,1.026383 125.999855,0.935936 
	C128.499771,0.930377 129.069626,1.500242 129.064072,4.000143 
	C128.973618,44.666611 128.973618,85.333397 129.064072,125.999855 
	C129.069626,128.499771 128.499771,129.069626 125.999855,129.064072 
	C85.333397,128.973618 44.666611,128.973618 4.000143,129.064072 
	C1.500242,129.069626 0.924206,128.500580 0.934680,125.999725 
	C1.041486,100.500175 1.000000,75.000000 1.000000,49.000000 
z"/>
<path fill="#F3F6F8" opacity="1.000000" stroke="none" 
	d="
M72.491760,94.323898 
	C72.882729,92.544495 71.571190,90.987755 73.135376,89.427307 
	C73.705429,87.484039 73.895630,85.837517 74.233643,83.855804 
	C74.784279,82.869171 75.366936,82.464409 76.480255,82.285385 
	C80.209541,83.765762 81.872826,86.980026 84.205635,89.521118 
	C86.306984,91.810081 87.613617,94.926636 91.224640,96.185501 
	C91.995621,96.666504 92.348953,97.046860 92.783279,97.875916 
	C93.217087,99.374992 93.131561,100.469299 92.466621,101.897453 
	C91.785233,102.620453 91.287567,102.893959 90.324211,103.172218 
	C84.859734,103.957886 79.829926,103.658470 74.410416,102.815819 
	C70.759636,100.545860 72.646149,97.454277 72.491760,94.323898 
z"/>
<path fill="#F7F9F9" opacity="1.000000" stroke="none" 
	d="
M66.780464,11.446939 
	C67.806366,10.754289 68.565582,10.389001 69.644485,10.091625 
	C70.108772,10.250163 70.253365,10.340789 70.607224,10.569116 
	C71.124573,10.872555 71.454727,10.931240 72.065651,10.810732 
	C73.042007,10.261301 73.748116,9.801138 74.735016,9.160971 
	C75.082710,8.755776 75.183495,8.586173 75.558571,8.305511 
	C77.598030,9.854839 80.312775,8.331256 82.177277,10.374603 
	C78.294975,14.447672 80.325111,18.344540 81.713058,22.471119 
	C73.175400,24.406157 68.812538,22.186008 66.260567,14.646969 
	C66.017769,13.380348 66.096558,12.552432 66.780464,11.446939 
z"/>
<path fill="#683B25" opacity="1.000000" stroke="none" 
	d="
M77.249893,82.627968 
	C76.496216,83.128830 75.971352,83.359764 75.252472,83.810249 
	C74.523766,84.675720 74.077629,85.440666 72.673653,85.488571 
	C69.994057,85.760521 67.742455,85.718925 65.113892,85.217300 
	C64.241516,84.919815 63.749249,84.814369 63.121414,84.489670 
	C62.820683,83.937019 62.615883,83.630470 62.148155,83.181519 
	C61.930923,83.008148 61.997566,83.021278 61.980213,83.050476 
	C61.644176,82.681259 61.340519,82.271706 60.893951,81.502579 
	C60.028454,78.735939 58.596897,76.491051 59.070328,73.447906 
	C59.367859,72.633728 59.652824,72.243820 60.377811,71.835251 
	C62.262249,72.603424 63.579109,73.884789 65.676842,74.435822 
	C68.309113,76.332680 68.647202,80.492050 73.002060,80.009140 
	C74.755463,78.891090 76.170502,78.237640 77.421860,80.638649 
	C77.640884,81.435143 77.609596,81.899391 77.249893,82.627968 
z"/>
<path fill="#CCDBE7" opacity="1.000000" stroke="none" 
	d="
M105.291763,20.809008 
	C105.082329,21.122656 105.020119,21.579668 105.091629,21.798912 
	C104.924576,22.566759 104.593475,23.075964 104.358551,23.958124 
	C103.759003,25.441122 102.768723,26.236122 101.674088,27.359411 
	C101.090057,27.852510 100.715790,28.080641 99.992752,28.356548 
	C98.250458,28.456003 97.065552,27.731190 95.488525,27.108509 
	C93.917015,26.370331 92.506660,26.004982 91.614677,24.372799 
	C91.592346,23.551750 91.764069,23.123859 92.344681,22.538839 
	C96.483032,21.254560 99.527107,19.156332 101.512772,15.168550 
	C101.974190,14.818565 102.197014,14.730457 102.779205,14.698116 
	C104.187447,15.474844 104.827065,16.527678 105.586189,17.947134 
	C105.900024,19.054770 105.855202,19.790962 105.291763,20.809008 
z"/>
<path fill="#6C3D29" opacity="1.000000" stroke="none" 
	d="
M113.908951,71.127487 
	C114.077042,71.504005 114.008835,71.502838 114.034355,71.480209 
	C115.851334,74.145706 114.081573,76.569794 113.270966,79.465485 
	C112.331017,80.567245 111.614700,81.285095 110.576691,82.015869 
	C109.700111,82.361320 109.070770,82.471527 108.230118,82.851791 
	C108.002373,83.072777 108.004723,83.003883 108.038734,83.009460 
	C107.794228,83.200089 107.544754,83.418327 107.172546,83.867355 
	C107.020775,84.064957 107.003700,84.003769 107.034317,84.012222 
	C106.787682,84.206360 106.538994,84.424599 106.167946,84.873055 
	C106.017021,85.070717 106.008812,85.003975 106.036354,85.023254 
	C105.632057,85.364319 105.148407,85.498886 104.246445,85.323051 
	C102.410507,83.142967 103.553764,81.502914 104.816284,79.973335 
	C106.172127,78.330704 107.497231,76.707443 107.860413,74.115051 
	C108.409531,72.181763 108.857445,70.620941 110.656998,69.464439 
	C112.275970,69.167961 113.172218,69.650024 113.908951,71.127487 
z"/>
<path fill="#6B3C28" opacity="1.000000" stroke="none" 
	d="
M106.194855,61.219345 
	C106.382507,61.577591 106.583351,61.746151 106.596138,62.282906 
	C106.670166,63.828533 104.795601,64.089027 105.000992,65.734039 
	C105.299492,67.381096 106.517540,67.962791 107.493942,69.177383 
	C107.883743,70.206284 107.866196,70.930679 107.511566,72.014832 
	C103.812584,75.143799 102.477531,74.998741 100.494652,71.394821 
	C99.023811,68.721558 98.211159,65.876724 99.401932,62.465096 
	C100.141602,61.347958 101.009941,60.872467 101.764526,59.819145 
	C102.388863,58.728622 102.844818,57.933445 103.635651,56.934406 
	C104.441788,56.190430 105.087051,55.866116 106.183319,55.701817 
	C107.033905,55.933224 107.389481,56.276760 107.727203,57.111694 
	C107.788788,58.809792 107.435516,59.999756 106.194855,61.219345 
z"/>
<path fill="#CCDBE7" opacity="1.000000" stroke="none" 
	d="
M62.555534,23.109119 
	C62.438763,22.824800 62.267384,22.367710 62.165009,22.146135 
	C61.299313,21.143339 61.480289,20.072710 61.242466,18.767288 
	C61.630096,17.164751 62.392521,16.188774 63.511925,15.026632 
	C64.036888,14.745123 64.274261,14.692873 64.856285,14.752676 
	C66.663391,18.744310 70.616623,20.553812 72.761841,24.254063 
	C72.783722,24.835447 72.758286,25.068041 72.608185,25.628067 
	C71.815804,26.939358 70.807144,27.511810 69.544197,28.296785 
	C67.182213,29.113670 65.891350,27.816410 64.335968,26.384365 
	C63.971550,25.991474 63.834408,25.828169 63.520622,25.401306 
	C63.059864,24.579500 62.938908,23.958427 62.555534,23.109119 
z"/>
<path fill="#F6C4AC" opacity="1.000000" stroke="none" 
	d="
M91.230316,111.643440 
	C90.946358,112.150383 90.870087,112.306709 90.727791,112.715454 
	C90.250305,114.761528 91.558266,117.109665 89.075653,118.232002 
	C86.739532,119.288116 85.900581,117.283386 84.544800,115.632507 
	C83.752419,113.840401 83.688461,112.334564 83.980713,110.456116 
	C84.258072,109.506119 84.807365,108.988129 84.435532,107.927567 
	C84.328194,107.108910 84.402214,106.642502 84.782219,105.887909 
	C85.225243,105.456535 85.442970,105.324806 86.027100,105.069214 
	C86.909256,104.836861 87.430725,104.782768 88.360825,104.802383 
	C91.877762,105.195732 91.837128,107.343414 91.486023,110.071671 
	C91.468102,110.750328 91.453049,111.021584 91.230316,111.643440 
z"/>
<path fill="#B16B62" opacity="1.000000" stroke="none" 
	d="
M84.856865,114.763062 
	C86.344154,115.843369 86.569977,118.347588 88.850372,117.435730 
	C90.687462,116.701141 90.012848,114.913696 90.456726,113.245071 
	C91.398338,115.028854 93.464928,117.455368 90.932289,119.098930 
	C89.422478,120.078720 86.610870,121.738754 84.978851,118.191483 
	C84.214745,116.530663 84.153038,118.606911 83.675232,118.772789 
	C81.228500,119.622208 78.470215,122.043785 77.267563,117.058655 
	C80.192825,116.218788 80.670807,113.504387 82.547104,111.786285 
	C84.199074,112.194786 84.372902,113.373672 84.856865,114.763062 
z"/>
<path fill="#7D5D4D" opacity="1.000000" stroke="none" 
	d="
M61.697479,80.866241 
	C61.935062,81.575027 61.964512,82.004654 61.978409,82.756973 
	C54.362057,81.616768 51.848301,76.694321 54.793442,68.459106 
	C55.673592,67.056374 56.862804,67.466545 58.197247,67.199738 
	C59.216709,67.083359 59.891113,67.152443 60.847183,67.573906 
	C61.270924,67.966080 61.393978,68.170013 61.371880,69.401184 
	C60.905540,70.781967 60.535275,71.071327 59.794117,71.441528 
	C56.150303,72.755112 57.467747,75.094696 58.209526,77.114700 
	C58.776932,78.659836 60.238983,79.572220 61.697479,80.866241 
z"/>
<path fill="#6F402D" opacity="1.000000" stroke="none" 
	d="
M110.745438,39.675846 
	C110.947800,40.001152 111.038109,40.416943 111.022446,40.629108 
	C111.901360,42.311291 111.318428,43.933613 111.473763,45.871880 
	C111.392563,46.517147 111.322418,46.769230 111.003510,47.322357 
	C110.586006,47.820000 110.417267,48.016594 109.889694,48.359100 
	C105.312309,47.109154 106.568504,42.466400 104.231743,39.503422 
	C103.598274,37.904373 103.148056,36.654827 103.909607,34.987698 
	C105.340218,33.824970 106.641083,33.751923 108.365608,34.242859 
	C110.418922,35.653397 109.667793,37.800362 110.745438,39.675846 
z"/>
<path fill="#B4BBC0" opacity="1.000000" stroke="none" 
	d="
M92.204987,102.291924 
	C92.277374,100.988640 92.253456,99.985672 92.240433,98.606262 
	C92.778625,97.254539 92.608688,96.231316 92.460472,94.879150 
	C92.517624,94.330040 92.573380,94.111259 92.815170,93.602142 
	C93.916275,92.394745 94.965744,92.035728 96.487267,92.776001 
	C96.775139,95.626762 96.474434,98.292519 96.906418,100.833717 
	C97.394722,103.706192 95.920403,104.810310 93.397919,105.874023 
	C92.878853,105.912308 92.712959,105.781250 92.394180,105.371605 
	C91.970421,104.271446 91.903625,103.439056 92.204987,102.291924 
z"/>
<path fill="#F8CEB7" opacity="1.000000" stroke="none" 
	d="
M83.040146,111.661873 
	C81.417656,113.807442 83.750259,119.102386 77.744606,116.751862 
	C77.393707,115.708588 77.361046,114.761269 77.378380,113.457489 
	C77.428604,112.901894 77.428833,112.702766 77.430687,112.204971 
	C77.370682,111.729256 77.309044,111.552216 77.124107,111.122437 
	C76.624969,110.418175 76.493942,109.903671 76.825661,108.971550 
	C78.281357,107.737801 79.676445,107.706932 81.519516,107.938179 
	C82.193672,108.150223 82.451988,108.269180 83.025513,108.675629 
	C83.769020,109.771011 83.788300,110.585007 83.040146,111.661873 
z"/>
<path fill="#815543" opacity="1.000000" stroke="none" 
	d="
M61.108974,68.065277 
	C60.174736,67.994469 59.553177,67.988045 58.620811,67.981750 
	C57.771473,67.785980 57.523956,67.402290 57.762379,66.505043 
	C60.766460,64.782349 59.756809,62.146481 59.981468,59.511372 
	C59.484859,58.523342 59.518120,57.818272 59.525898,56.773453 
	C59.638031,56.218155 59.740608,56.010651 60.147141,55.638554 
	C60.679447,55.452484 60.907795,55.431000 61.465126,55.504765 
	C61.960670,55.755131 62.127228,55.910248 62.404877,56.386681 
	C62.597553,57.597443 62.616428,58.495831 62.991875,59.687084 
	C63.585251,63.221310 67.193359,65.519310 65.613876,69.594902 
	C65.096481,70.249756 64.693069,70.478081 63.872147,70.548737 
	C62.283150,70.203949 62.381748,68.701698 61.108974,68.065277 
z"/>
<path fill="#AD4D47" opacity="1.000000" stroke="none" 
	d="
M96.855988,92.680656 
	C95.636803,92.991692 94.533043,93.012878 93.328720,93.955185 
	C92.671822,93.787415 92.423286,93.421188 92.270752,92.638672 
	C92.312111,91.857376 92.442909,91.433922 92.834778,90.763611 
	C93.421471,89.989578 93.864967,89.522980 94.520508,88.825127 
	C95.215988,88.205971 95.739685,87.877846 96.464523,87.318954 
	C97.547775,86.464279 97.743782,85.473701 98.104492,84.218201 
	C98.398132,83.542679 98.660278,83.219795 99.280563,82.837715 
	C100.248161,82.816711 100.676872,83.272408 101.315201,83.946495 
	C101.943008,84.595749 102.359520,85.028000 102.865463,85.765518 
	C101.646355,88.771889 98.629303,89.914337 96.855988,92.680656 
z"/>
<path fill="#6B3C28" opacity="1.000000" stroke="none" 
	d="
M61.440552,55.657864 
	C61.024227,55.955830 60.816807,55.970791 60.298080,56.005737 
	C58.565426,54.836098 58.302406,53.012001 57.289089,51.232342 
	C57.079170,50.980789 56.971172,50.638599 56.986664,50.459854 
	C56.095398,49.024773 56.902916,47.820065 57.272530,46.245129 
	C57.918320,45.254509 58.554451,44.855503 59.717793,44.752525 
	C61.560360,46.207554 62.660320,47.816406 62.982597,50.237129 
	C62.935886,51.324081 62.766232,52.023224 62.480751,53.059647 
	C62.258533,54.102493 62.024986,54.765636 61.440552,55.657864 
z"/>
<path fill="#BBBABE" opacity="1.000000" stroke="none" 
	d="
M82.254395,10.960283 
	C80.457687,8.575697 76.980927,12.977314 75.881668,8.580917 
	C76.248749,6.599144 77.474953,7.116251 78.812477,7.323243 
	C82.120262,8.419131 85.174881,8.028602 88.584930,7.753272 
	C89.093544,7.945294 89.243553,8.131656 89.448120,8.673062 
	C89.143311,10.791341 87.648880,10.988768 85.951828,11.420821 
	C84.555275,11.537097 83.525581,11.198051 82.254395,10.960283 
z"/>
<path fill="#9E9690" opacity="1.000000" stroke="none" 
	d="
M89.134766,8.853212 
	C89.037399,8.540944 88.797386,8.136384 88.822144,7.743895 
	C92.722931,7.348464 96.197533,8.855854 99.865051,10.575266 
	C100.595360,11.558437 100.540634,12.235955 99.837662,13.150736 
	C97.746986,13.854586 96.399536,12.693101 94.600555,11.934469 
	C93.748108,11.436868 93.247002,11.019404 92.417252,10.537869 
	C91.715576,10.316302 91.305550,10.210217 90.583412,10.013029 
	C89.862526,9.755971 89.513031,9.507711 89.134766,8.853212 
z"/>
<path fill="#856251" opacity="1.000000" stroke="none" 
	d="
M56.570389,41.232079 
	C56.153519,36.839363 57.699337,33.051609 59.651520,29.130997 
	C60.884449,29.459452 61.232506,30.290802 61.430733,31.562738 
	C61.201569,33.014332 60.426735,33.922977 60.200779,35.394943 
	C59.564190,37.499462 59.413460,39.421822 57.896389,41.143833 
	C57.357552,41.361107 57.119873,41.384846 56.570389,41.232079 
z"/>
<path fill="#AF7E67" opacity="1.000000" stroke="none" 
	d="
M61.155418,32.221310 
	C60.748119,31.122189 60.408363,30.363102 60.028725,29.292120 
	C60.152374,28.421934 60.315910,27.863642 60.721428,27.140615 
	C61.883987,26.218548 62.823116,26.413668 64.070129,27.144875 
	C65.089134,28.097645 65.559868,28.944046 65.565430,30.345238 
	C65.013863,31.852407 64.084518,32.565369 62.688984,33.228966 
	C61.884953,33.190601 61.505180,32.949615 61.155418,32.221310 
z"/>
<path fill="#B16B62" opacity="1.000000" stroke="none" 
	d="
M83.435364,109.038567 
	C82.843689,109.049644 82.678108,109.084572 82.267242,109.054131 
	C80.714340,107.645096 79.370499,106.649872 77.555740,108.816727 
	C77.328957,109.493965 77.272995,109.896843 77.108925,110.584717 
	C75.095268,109.908981 76.534142,108.123367 75.992134,106.436691 
	C75.883270,105.790306 75.785156,105.530907 75.920761,104.924667 
	C76.617599,104.248802 77.124001,104.012077 78.092239,103.794571 
	C80.501167,103.691643 82.547554,103.415894 84.311905,105.433044 
	C84.385559,106.930008 84.815620,108.126709 83.435364,109.038567 
z"/>
<path fill="#F8EFEC" opacity="1.000000" stroke="none" 
	d="
M88.405396,7.357769 
	C88.846893,7.351406 88.602936,7.524168 88.536606,7.661261 
	C85.511505,9.730949 82.467743,9.397852 79.246674,7.811084 
	C82.057358,7.443482 85.010628,7.403807 88.405396,7.357769 
z"/>
<path fill="#97634E" opacity="1.000000" stroke="none" 
	d="
M114.270065,71.305580 
	C113.287621,71.033157 112.498207,70.562309 111.368271,70.027855 
	C110.062820,69.488647 108.939842,69.387810 107.797150,68.505737 
	C107.016129,67.833153 106.669495,67.259056 106.432510,66.248810 
	C106.488388,65.175568 106.823639,64.582581 107.702179,63.977425 
	C109.176422,64.391769 109.038307,66.311638 110.854950,66.603500 
	C111.403984,67.431847 112.014259,67.504013 112.848572,67.800491 
	C113.423378,68.035202 113.674805,68.208557 113.944046,68.697189 
	C114.144249,69.178558 114.259003,69.442764 114.351456,70.138458 
	C114.373787,70.749023 114.418434,70.928085 114.270065,71.305580 
z"/>
<path fill="#9F9B97" opacity="1.000000" stroke="none" 
	d="
M72.293762,94.274452 
	C73.942101,96.172028 71.845238,99.106155 74.064842,101.612198 
	C74.120422,102.316994 73.893913,102.645729 73.383301,103.136261 
	C72.989532,103.448250 72.821091,103.558830 72.367935,103.770813 
	C69.890259,100.795799 71.344696,97.726128 72.293762,94.274452 
z"/>
<path fill="#805948" opacity="1.000000" stroke="none" 
	d="
M110.983398,39.588062 
	C109.052971,39.165707 108.959465,37.491016 108.964157,35.400040 
	C107.814400,34.290142 106.983086,33.360081 107.110962,31.499929 
	C107.274689,30.877342 107.381577,30.640438 107.778351,30.142868 
	C110.315727,32.578461 111.136780,35.727661 110.983398,39.588062 
z"/>
<path fill="#7F5E4E" opacity="1.000000" stroke="none" 
	d="
M113.385925,79.737442 
	C113.365448,77.345375 113.683563,74.841347 114.030777,71.897446 
	C118.483574,74.366425 114.417427,76.926704 113.385925,79.737442 
z"/>
<path fill="#7A4A37" opacity="1.000000" stroke="none" 
	d="
M107.954132,63.567017 
	C107.757935,64.398849 107.488220,64.951141 107.113220,65.792343 
	C106.342331,66.707314 105.572067,66.747917 104.414413,66.251465 
	C101.984711,63.556004 103.925835,63.195484 106.154716,62.635056 
	C106.989853,62.754642 107.435234,63.021061 107.954132,63.567017 
z"/>
<path fill="#A17B6C" opacity="1.000000" stroke="none" 
	d="
M56.194427,41.492241 
	C56.258583,41.055569 56.583698,41.061432 56.745152,41.042305 
	C58.259575,42.183826 58.879704,43.599197 58.160667,45.699730 
	C57.654591,47.196487 57.411835,48.382050 57.085617,49.924362 
	C54.841789,47.692226 56.624855,44.691689 56.194427,41.492241 
z"/>
<path fill="#978A83" opacity="1.000000" stroke="none" 
	d="
M57.597881,66.107193 
	C58.017563,66.583099 58.077702,66.987022 58.223927,67.686409 
	C57.434311,69.109383 56.447117,68.028244 55.216225,68.117485 
	C54.094967,67.392998 52.497593,66.625252 53.350662,65.529106 
	C54.502945,64.048492 55.937061,65.665443 57.597881,66.107193 
z"/>
<path fill="#B4846D" opacity="1.000000" stroke="none" 
	d="
M106.429993,26.823582 
	C106.785309,27.059698 106.873970,27.531044 106.938675,27.761957 
	C107.647934,28.717918 107.455040,29.590649 107.263626,30.827909 
	C104.588448,32.245239 102.454376,32.611389 102.913681,28.362709 
	C103.874329,27.031820 104.793411,26.424616 106.429993,26.823582 
z"/>
<path fill="#856251" opacity="1.000000" stroke="none" 
	d="
M57.048172,51.364037 
	C59.611668,51.387932 59.018959,53.830078 59.943336,55.669182 
	C59.989105,56.796070 59.991440,57.566414 59.983215,58.722771 
	C58.878628,56.698658 57.262501,54.498142 57.048172,51.364037 
z"/>
<path fill="#E3E7E8" opacity="1.000000" stroke="none" 
	d="
M72.225365,104.134689 
	C72.083221,103.872223 72.372398,103.578606 72.412910,103.376572 
	C74.079926,101.832306 75.992989,102.805000 78.146942,102.547150 
	C79.578903,103.100670 79.274124,103.763916 78.399673,104.664276 
	C77.626442,104.912323 77.190384,104.947189 76.425491,105.003036 
	C75.690819,105.402573 75.215286,105.539818 74.360329,105.199860 
	C73.489510,104.774803 72.928513,104.585976 72.225365,104.134689 
z"/>
<path fill="#AFA9A1" opacity="1.000000" stroke="none" 
	d="
M98.894493,13.289530 
	C99.343391,12.500276 99.663887,12.010572 100.004471,11.216918 
	C101.978241,10.648982 102.623131,12.350320 103.863861,13.677875 
	C104.218071,14.446123 104.133514,14.833817 103.365067,15.097181 
	C102.835098,15.084955 102.649757,15.109121 102.189575,15.188705 
	C101.249039,15.468519 100.631363,15.294667 99.749359,14.841288 
	C99.148415,14.365241 98.908203,14.009328 98.894493,13.289530 
z"/>
<path fill="#B5B0AB" opacity="1.000000" stroke="none" 
	d="
M65.144760,14.860764 
	C64.848999,14.822709 64.448471,14.850840 64.249924,14.880581 
	C63.424618,15.565242 62.936081,15.140619 62.341938,14.399099 
	C63.712635,13.187187 64.497726,11.370574 66.700119,11.040442 
	C66.978455,11.811966 66.909744,12.504354 66.825363,13.544813 
	C66.550453,14.496537 66.052773,14.775641 65.144760,14.860764 
z"/>
<path fill="#A17B6C" opacity="1.000000" stroke="none" 
	d="
M92.637833,104.607697 
	C92.962822,105.024094 92.982933,105.227737 93.023895,105.737381 
	C92.678429,107.451782 92.312103,108.860199 91.916855,110.642593 
	C91.742226,111.127312 91.596527,111.238060 91.231064,111.184288 
	C90.400215,109.308556 92.386482,106.417351 88.376144,106.009323 
	C87.891022,105.717995 87.794189,105.491371 87.893066,104.949280 
	C88.500160,104.347694 88.950066,104.144920 89.802963,103.960297 
	C90.934120,103.888741 91.657692,104.034782 92.637833,104.607697 
z"/>
<path fill="#7B5847" opacity="1.000000" stroke="none" 
	d="
M106.449829,61.547165 
	C106.367851,60.311874 106.690445,59.051842 107.034081,57.401630 
	C107.573837,55.999943 107.186447,54.742340 108.126984,53.511131 
	C108.501022,53.084980 108.677643,52.939487 109.476555,52.940163 
	C109.644539,56.139568 109.037399,59.134022 106.449829,61.547165 
z"/>
<path fill="#C9CBCA" opacity="1.000000" stroke="none" 
	d="
M74.616173,8.942451 
	C74.342125,10.027663 74.229523,11.538487 72.332474,11.956900 
	C71.407654,11.972517 70.875717,11.783177 70.236954,11.165816 
	C70.051056,10.944276 70.010574,10.551582 69.987381,10.355560 
	C71.002769,8.365956 72.269112,7.385907 74.616173,8.942451 
z"/>
<path fill="#E3E7E8" opacity="1.000000" stroke="none" 
	d="
M103.052811,15.399453 
	C103.302391,14.881544 103.558739,14.671105 103.898834,14.205789 
	C105.463432,14.603683 106.282585,15.757406 106.692551,17.542538 
	C106.508575,18.260233 106.209534,18.448572 105.529755,18.305496 
	C104.186180,17.675184 103.323524,16.989023 103.052811,15.399453 
z"/>
<path fill="#E3E7E8" opacity="1.000000" stroke="none" 
	d="
M62.102364,14.359284 
	C62.684673,14.307167 63.134403,14.521273 63.817757,14.822850 
	C63.969173,16.164114 63.482693,17.185144 62.044266,17.991030 
	C61.363571,18.405262 60.964653,18.504047 60.303513,18.172623 
	C60.084492,17.934120 60.016792,18.006163 60.041256,17.963509 
	C59.929504,17.781876 59.793289,17.642895 59.860252,17.294327 
	C60.133270,16.928448 60.203110,16.772156 60.319809,16.363396 
	C60.412155,15.909304 60.457634,15.707677 60.805153,15.436081 
	C61.394722,15.119245 61.682255,14.872376 62.102364,14.359284 
z"/>
<path fill="#7D5D4D" opacity="1.000000" stroke="none" 
	d="
M64.957191,85.323799 
	C67.201675,85.014870 69.669571,85.004471 72.593910,85.016556 
	C73.136215,85.230759 73.222076,85.422485 73.095642,85.847061 
	C70.286804,86.414757 67.681259,86.901360 64.957191,85.323799 
z"/>
<path fill="#805948" opacity="1.000000" stroke="none" 
	d="
M101.330055,27.263466 
	C101.758362,26.053946 102.467209,25.092428 103.433678,23.971764 
	C103.916641,23.672096 104.141983,23.531574 104.619385,23.699520 
	C104.871445,24.007990 105.007599,24.457520 105.054749,24.687588 
	C105.032448,25.668482 104.804214,26.361338 104.056847,27.199423 
	C103.058846,27.810280 102.340355,27.803440 101.330055,27.263466 
z"/>
<path fill="#9F9B97" opacity="1.000000" stroke="none" 
	d="
M72.957993,86.455124 
	C72.914360,85.906891 72.945389,85.733871 73.013390,85.299942 
	C73.532806,84.740601 74.015251,84.442162 74.778091,84.086761 
	C75.261772,85.739227 74.431778,87.171661 73.549088,88.876762 
	C73.198479,88.337982 73.115562,87.584167 72.957993,86.455124 
z"/>
<path fill="#856251" opacity="1.000000" stroke="none" 
	d="
M64.240532,27.645487 
	C63.196774,27.674662 62.400547,27.362051 61.283863,27.012661 
	C61.272068,26.480833 61.580727,25.985785 62.014046,25.218882 
	C62.523289,24.595995 62.975845,24.412926 63.860298,24.492313 
	C64.224304,24.587000 64.269379,24.808931 64.164352,24.851257 
	C64.509407,25.642317 64.752327,26.427898 64.240532,27.645487 
z"/>
<path fill="#9F9B97" opacity="1.000000" stroke="none" 
	d="
M105.220459,18.524811 
	C105.584435,18.078646 105.886383,17.974669 106.420761,17.851604 
	C106.729080,18.991154 107.700134,20.365685 105.455666,21.052811 
	C105.110550,20.379066 105.138779,19.635477 105.220459,18.524811 
z"/>
<path fill="#9E9690" opacity="1.000000" stroke="none" 
	d="
M60.081509,18.280357 
	C60.450985,17.948484 60.817482,17.962849 61.454494,18.058685 
	C61.857769,19.147423 61.990528,20.154684 62.092960,21.543255 
	C60.711082,21.240463 60.616783,19.799982 60.081509,18.280357 
z"/>
<path fill="#8D6E5E" opacity="1.000000" stroke="none" 
	d="
M103.778595,27.259022 
	C104.159805,26.441647 104.373314,25.861313 104.844360,25.099319 
	C105.698669,25.434364 106.295456,25.951069 106.838776,26.763737 
	C106.036880,27.293839 105.288452,27.527979 104.256721,27.855932 
	C103.852577,27.798517 103.731743,27.647291 103.778595,27.259022 
z"/>
<path fill="#AFA9A1" opacity="1.000000" stroke="none" 
	d="
M111.158264,47.216827 
	C110.909996,45.259369 110.915428,43.491318 110.963821,41.282272 
	C112.953812,42.313126 111.447197,44.419151 111.927658,46.561626 
	C111.719765,47.117329 111.565865,47.261787 111.158264,47.216827 
z"/>
<path fill="#7F5E4E" opacity="1.000000" stroke="none" 
	d="
M103.342232,86.012665 
	C102.467224,85.912834 101.939232,85.791557 101.217278,85.475449 
	C101.522469,84.399658 102.320595,84.293243 103.584053,84.642548 
	C104.423386,84.885025 104.893120,84.919800 105.713371,84.998558 
	C105.578239,86.124466 104.589249,85.946480 103.342232,86.012665 
z"/>
<path fill="#856251" opacity="1.000000" stroke="none" 
	d="
M110.859375,47.810280 
	C111.085960,49.089073 111.041824,50.147141 110.940704,51.598602 
	C110.633057,52.087864 110.382401,52.183735 109.828857,52.012718 
	C108.981468,50.722652 108.956017,49.690460 109.698807,48.315197 
	C109.925407,47.981533 109.980255,48.006741 110.009613,48.013718 
	C110.222198,47.876984 110.405426,47.733269 110.859375,47.810280 
z"/>
<path fill="#9E9690" opacity="1.000000" stroke="none" 
	d="
M64.145233,24.326853 
	C63.766876,24.708231 63.309452,24.829462 62.495361,24.948860 
	C62.135246,24.461210 62.131786,23.975393 62.283546,23.157188 
	C63.287300,22.837688 63.746910,23.360233 64.145233,24.326853 
z"/>
<path fill="#8D6E5E" opacity="1.000000" stroke="none" 
	d="
M107.292557,31.234051 
	C107.049400,30.299213 107.016701,29.530699 106.993690,28.377529 
	C107.693275,28.150206 107.938004,28.642717 108.023613,29.585417 
	C108.053658,30.095419 108.039085,30.308634 108.003983,30.841763 
	C107.823303,31.241243 107.663155,31.320810 107.292557,31.234051 
z"/>
<path fill="#8D6E5E" opacity="1.000000" stroke="none" 
	d="
M104.983658,23.758711 
	C104.672691,23.989201 104.473930,23.970409 103.983231,23.882118 
	C103.999634,23.299025 104.307968,22.785429 104.889725,22.144997 
	C106.490021,22.576126 105.374344,23.023893 104.983658,23.758711 
z"/>
<path fill="#9F9B97" opacity="1.000000" stroke="none" 
	d="
M74.093781,105.286209 
	C74.506050,104.939003 74.961586,104.914375 75.756882,104.956879 
	C76.068153,105.193939 76.039665,105.363861 75.996277,105.791748 
	C75.366600,105.902740 74.751823,105.755768 74.093781,105.286209 
z"/>
<path fill="#805948" opacity="1.000000" stroke="none" 
	d="
M111.353195,47.935394 
	C110.948128,48.026577 110.766167,48.022152 110.311592,48.019211 
	C110.094444,47.703102 110.245270,47.440239 110.698013,47.129765 
	C110.904564,47.027416 111.389938,47.010700 111.631798,46.991783 
	C111.973450,47.330051 111.874329,47.619026 111.353195,47.935394 
z"/>
<path fill="#7F5E4E" opacity="1.000000" stroke="none" 
	d="
M108.331398,83.046593 
	C108.527153,82.722771 109.051933,82.372757 109.915848,82.025772 
	C109.723465,82.359337 109.191940,82.689865 108.331398,83.046593 
z"/>
<path fill="#7F5E4E" opacity="1.000000" stroke="none" 
	d="
M112.963715,67.676407 
	C112.517303,67.781776 111.930313,67.603607 111.186417,67.151276 
	C111.627388,67.049026 112.225250,67.220947 112.963715,67.676407 
z"/>
<path fill="#B16B62" opacity="1.000000" stroke="none" 
	d="
M77.330154,112.204636 
	C77.562401,112.246307 77.692497,112.586327 77.625481,113.013680 
	C77.361580,112.901672 77.294792,112.702332 77.330154,112.204636 
z"/>
<path fill="#B16B62" opacity="1.000000" stroke="none" 
	d="
M90.997314,111.263535 
	C91.011314,111.019768 91.451248,111.012138 91.669586,111.014351 
	C91.780418,111.328415 91.672920,111.640266 91.294029,111.973083 
	C91.022636,111.994049 90.983307,111.507301 90.997314,111.263535 
z"/>
<path fill="#9E9690" opacity="1.000000" stroke="none" 
	d="
M59.780277,17.078812 
	C60.063435,17.084742 60.215351,17.502380 60.140533,17.711618 
	C59.516945,17.879086 58.878178,17.897655 59.780277,17.078812 
z"/>
<path fill="#7B5847" opacity="1.000000" stroke="none" 
	d="
M109.737137,52.328827 
	C110.053467,52.060741 110.219612,52.046486 110.634735,52.012108 
	C110.976257,52.363152 110.865486,52.657856 110.325119,52.981224 
	C110.098846,53.086334 110.050209,53.044315 110.026062,53.023102 
	C109.863594,52.862144 109.725273,52.722404 109.737137,52.328827 
z"/>
<path fill="#7D5D4D" opacity="1.000000" stroke="none" 
	d="
M62.008739,83.286163 
	C62.235355,83.236397 62.539787,83.464653 62.915031,83.981659 
	C62.686085,84.035011 62.386318,83.799591 62.008739,83.286163 
z"/>
<path fill="#9E9690" opacity="1.000000" stroke="none" 
	d="
M60.828617,15.244209 
	C61.197968,15.693362 61.093929,15.937760 60.580872,16.105118 
	C60.427799,15.781390 60.488918,15.451848 60.828617,15.244209 
z"/>
<path fill="#7F5E4E" opacity="1.000000" stroke="none" 
	d="
M114.534096,70.373123 
	C114.261505,70.297287 114.193878,70.024612 114.077881,69.333153 
	C114.642967,69.123062 114.934998,69.512497 114.534096,70.373123 
z"/>
<path fill="#7F5E4E" opacity="1.000000" stroke="none" 
	d="
M106.278458,84.998962 
	C106.196198,84.774200 106.375366,84.477684 106.809738,84.100922 
	C106.889923,84.322853 106.714912,84.625031 106.278458,84.998962 
z"/>
<path fill="#7F5E4E" opacity="1.000000" stroke="none" 
	d="
M107.282837,83.994049 
	C107.202789,83.771873 107.384796,83.478790 107.819778,83.100372 
	C107.896797,83.317734 107.720848,83.620438 107.282837,83.994049 
z"/>
<path fill="#BD5652" opacity="1.000000" stroke="none" 
	d="
M92.717857,91.902893 
	C93.009712,92.533241 93.007515,92.976898 93.014328,93.753334 
	C93.023346,94.086121 92.905533,94.481583 92.854355,94.681442 
	C92.791275,95.949173 92.148811,96.464615 90.866531,96.727661 
	C87.554291,97.153160 86.763588,94.454201 85.326591,92.872826 
	C82.569229,89.838409 80.093399,86.548180 77.260925,83.130981 
	C77.024384,82.442154 77.027687,81.986412 77.003235,81.190002 
	C76.868866,80.631500 76.762253,80.413666 76.801575,79.861412 
	C77.555847,78.656975 78.417061,78.281700 79.811386,78.303375 
	C80.618454,78.553047 80.995544,78.837090 81.401405,79.565430 
	C82.009491,85.149895 87.788467,91.408257 92.717857,91.902893 
z"/>
<path fill="#C3CFD5" opacity="1.000000" stroke="none" 
	d="
M79.321320,103.511093 
	C77.113174,103.139557 75.178169,103.107262 72.848297,103.124756 
	C72.301437,102.271210 72.888901,102.058525 73.935440,101.948212 
	C79.221176,101.693924 84.153831,102.961861 89.507568,102.063522 
	C90.353813,102.529053 90.500549,103.056999 90.076935,104.002739 
	C86.352699,105.124382 82.949242,104.995728 79.321320,103.511093 
z"/>
<path fill="#E3E7E8" opacity="1.000000" stroke="none" 
	d="
M89.722580,104.054916 
	C89.961235,103.409172 89.955437,103.029243 89.931587,102.366028 
	C90.442207,102.056671 90.970879,102.030609 91.900421,101.998070 
	C92.995148,102.586014 93.087151,103.364380 92.960152,104.512398 
	C92.198761,104.864120 91.454819,104.907799 90.340652,104.900345 
	C89.806335,104.673058 89.642227,104.496895 89.722580,104.054916 
z"/>
<path fill="#E3E7E8" opacity="1.000000" stroke="none" 
	d="
M90.870789,96.925812 
	C91.114372,96.210876 91.695450,95.677902 92.539856,95.013123 
	C94.359154,95.884041 94.513847,96.922546 92.567139,98.118210 
	C91.903648,97.855797 91.555962,97.481789 90.870789,96.925812 
z"/>
<path fill="#E45355" opacity="1.000000" stroke="none" 
	d="
M81.735382,10.928606 
	C82.901558,10.706941 83.759888,10.683273 84.880981,10.637390 
	C86.267281,10.389772 87.240707,10.827116 88.514793,11.571583 
	C90.942932,14.983592 90.703056,17.986788 87.967339,21.128824 
	C86.282051,22.298584 84.871628,23.066412 82.948631,21.983551 
	C77.153816,19.148212 76.672432,15.305122 81.735382,10.928606 
z"/>
<path fill="#E3EEF6" opacity="1.000000" stroke="none" 
	d="
M82.244446,21.739769 
	C83.927727,21.392134 85.110954,21.143879 86.598709,20.808094 
	C87.314835,21.109509 87.527817,21.586628 87.438873,22.542480 
	C86.413300,24.081785 85.087959,24.182262 83.392273,24.312351 
	C82.532532,24.350792 82.047081,24.364799 81.214233,24.407806 
	C80.411659,24.505075 79.958458,24.580605 79.178169,24.764854 
	C78.405815,24.980986 77.960716,25.094139 77.176254,25.284344 
	C75.463966,25.631292 74.102844,26.119062 72.385010,25.436008 
	C71.756203,22.539989 68.967300,21.999241 67.599121,20.181553 
	C66.514046,18.739975 64.863579,17.688511 64.905350,15.204293 
	C65.317581,14.536857 65.786171,14.251004 66.532227,13.929018 
	C69.281845,21.251740 74.775085,22.932554 82.244446,21.739769 
z"/>
<path fill="#E3E7E8" opacity="1.000000" stroke="none" 
	d="
M70.063316,11.242205 
	C70.593147,11.132496 71.135231,11.320716 71.840797,11.750944 
	C71.065254,13.103289 70.451317,12.828981 70.063316,11.242205 
z"/>
<path fill="#E3E7E8" opacity="1.000000" stroke="none" 
	d="
M68.555038,12.451162 
	C68.592117,12.512674 68.517960,12.389650 68.555038,12.451162 
z"/>
<path fill="#6C3F2D" opacity="1.000000" stroke="none" 
	d="
M61.902031,80.757874 
	C58.000366,81.005669 56.489891,78.355164 56.107590,75.063980 
	C55.899914,73.276154 54.997890,70.489044 58.825920,70.728539 
	C59.574974,71.357941 59.646873,71.913078 59.811256,72.727188 
	C59.510902,75.714844 61.188450,77.917564 61.902031,80.757874 
z"/>
<path fill="#F8CEB7" opacity="1.000000" stroke="none" 
	d="
M74.276474,80.512909 
	C71.952606,83.372688 70.159569,82.049950 68.637436,80.115456 
	C67.570412,78.759369 66.214500,77.525032 66.001366,75.065598 
	C66.631775,74.040245 67.226463,73.777992 68.197418,73.594635 
	C69.643753,73.753464 70.547279,74.392624 71.763138,75.127724 
	C72.561157,75.701462 72.996925,76.181938 73.569092,76.970612 
	C73.963699,77.604973 74.150887,77.986794 74.389000,78.687660 
	C74.490112,79.411499 74.478966,79.829155 74.276474,80.512909 
z"/>
<path fill="#A38679" opacity="1.000000" stroke="none" 
	d="
M60.863243,68.256241 
	C61.270519,67.329315 61.902405,66.787025 62.731041,67.060371 
	C63.829014,67.422569 63.127289,68.321190 63.063091,69.281883 
	C63.973026,71.305832 67.573959,71.111717 66.333801,74.708260 
	C66.136436,75.072426 65.894958,75.135880 65.803421,75.050835 
	C63.960403,74.647247 61.372547,76.168846 60.960857,72.443527 
	C60.576199,71.644417 60.459976,71.167931 60.796528,70.319557 
	C61.017387,70.004288 60.998932,69.999390 61.003868,70.007629 
	C61.133629,69.850136 61.258453,69.684418 61.186749,69.277405 
	C60.970211,68.861275 60.950199,68.686432 60.863243,68.256241 
z"/>
<path fill="#9F9B97" opacity="1.000000" stroke="none" 
	d="
M74.348236,80.663193 
	C74.053459,80.397133 73.992485,80.014595 73.926903,79.338860 
	C73.799660,78.797577 73.677040,78.549484 73.522705,77.886322 
	C73.492157,75.367233 74.523811,74.382576 76.996590,74.802521 
	C78.247650,76.339989 78.209877,77.689606 77.336014,79.444984 
	C77.115692,79.994385 77.091278,80.166092 77.021179,80.593559 
	C76.099968,81.363091 75.750633,77.715118 74.348236,80.663193 
z"/>
<path fill="#815543" opacity="1.000000" stroke="none" 
	d="
M60.762978,70.104950 
	C61.015152,70.462814 61.012917,70.921333 60.967659,71.722031 
	C60.619045,72.138176 60.374741,72.302979 60.087048,72.757668 
	C59.679577,72.490234 59.376785,72.023766 59.070271,71.261795 
	C59.547226,70.712738 60.027901,70.459175 60.762978,70.104950 
z"/>
<path fill="#F7F9F9" opacity="1.000000" stroke="none" 
	d="
M87.114487,23.399374 
	C86.997658,22.557085 86.978134,22.032291 86.930923,21.114033 
	C89.357338,18.389751 89.948746,15.734701 88.141449,12.340927 
	C87.538185,9.846689 89.894264,10.605445 90.769287,9.348253 
	C91.457306,9.135203 91.883835,9.130609 92.625839,9.186125 
	C93.504890,9.603569 93.452942,10.196789 93.746323,10.904957 
	C95.767464,10.770000 97.192932,11.427316 98.693108,12.869380 
	C99.140198,13.294162 99.332695,13.539294 99.806107,13.842211 
	C101.527580,19.583651 96.707169,20.404064 93.264427,22.730316 
	C92.689278,23.223921 92.397705,23.471279 92.014908,23.993895 
	C91.595581,24.574839 91.211884,24.779425 90.451515,24.942686 
	C89.676849,24.989370 89.237206,24.938148 88.489281,24.727825 
	C87.789032,24.385506 87.467628,24.086424 87.114487,23.399374 
z"/>
<path fill="#633A24" opacity="1.000000" stroke="none" 
	d="
M89.718758,24.401073 
	C90.421143,24.204634 90.849480,24.218624 91.600754,24.250885 
	C93.081650,24.792458 94.239609,25.315765 95.681793,25.996494 
	C97.267578,27.775660 96.317520,29.497295 96.099258,31.548176 
	C95.911827,32.144581 95.814247,32.375294 95.492790,32.906754 
	C94.643539,33.664722 93.938637,33.813110 92.838371,33.652275 
	C92.305222,33.435741 92.111908,33.312817 91.698761,32.935368 
	C91.036354,31.959900 90.832794,31.110689 90.027817,30.268074 
	C89.057388,29.615719 88.342026,29.141304 87.650879,28.152199 
	C87.121902,26.155735 88.156647,25.307505 89.718758,24.401073 
z"/>
<path fill="#7A4A37" opacity="1.000000" stroke="none" 
	d="
M106.708450,31.087717 
	C107.082108,31.067726 107.534973,31.092539 107.759209,31.127108 
	C108.226562,32.239700 108.469681,33.317722 108.833298,34.715034 
	C107.576004,35.020370 106.198196,35.006409 104.152519,34.887413 
	C103.183006,34.565624 102.891571,34.335857 102.387390,33.915695 
	C102.023293,33.605747 101.880424,33.475376 101.543922,33.124168 
	C100.987045,32.423714 100.663239,31.916704 100.147430,31.159779 
	C99.540459,30.129107 99.253006,29.335312 99.762726,28.200195 
	C100.120834,27.654667 100.329582,27.409857 100.829453,27.120548 
	C101.774452,27.014751 102.499397,27.014040 103.585320,27.017654 
	C103.946297,27.021980 103.965218,27.486237 103.969315,27.717991 
	C102.326454,30.822502 103.995369,31.215796 106.708450,31.087717 
z"/>
<path fill="#E3EEF6" opacity="1.000000" stroke="none" 
	d="
M93.354370,22.985170 
	C94.388649,19.448902 99.686142,19.178864 99.971573,14.318274 
	C100.475372,14.293442 100.938927,14.627836 101.658607,15.103177 
	C101.220238,19.976555 98.053741,22.097534 93.354370,22.985170 
z"/>
<path fill="#805948" opacity="1.000000" stroke="none" 
	d="
M99.669205,27.899437 
	C100.232414,28.707294 100.481682,29.454525 100.889618,30.458454 
	C100.860214,31.229280 100.536148,31.634893 99.722977,32.114819 
	C98.104721,32.782307 96.834793,33.113831 95.237625,32.168270 
	C94.769798,30.133827 95.275681,28.496487 95.929474,26.517025 
	C97.095772,26.715549 98.225517,27.277180 99.669205,27.899437 
z"/>
<path fill="#5E3520" opacity="1.000000" stroke="none" 
	d="
M103.972366,84.497452 
	C103.217880,84.936874 102.482101,85.023491 101.384827,85.195358 
	C100.656166,84.682182 100.289009,84.083740 99.833359,83.139145 
	C98.537506,81.421196 98.765320,79.438751 97.527809,77.717224 
	C96.046913,75.259079 94.543854,73.240799 92.499596,71.242676 
	C91.868881,70.817551 91.505798,70.584007 90.857193,70.203842 
	C90.391304,69.941963 90.206787,69.833153 89.758118,69.539528 
	C88.659637,68.643547 87.954865,67.843010 87.711380,66.418823 
	C87.863602,65.930588 87.994370,65.762634 88.394478,65.429726 
	C88.858177,65.191429 89.052528,65.118080 89.544189,64.965759 
	C90.621048,64.714752 91.403870,64.555115 92.429764,64.169006 
	C93.436401,63.782917 94.157539,63.481945 95.047440,62.847321 
	C95.461571,62.550762 95.630417,62.432854 96.060669,62.143021 
	C97.051414,61.517250 97.779579,61.061447 98.852249,60.532341 
	C99.624397,60.334007 100.076698,60.356728 100.824341,60.641876 
	C101.208153,61.037758 101.293495,61.254120 101.148445,61.732468 
	C98.824585,65.555069 100.674362,68.575920 102.151207,71.710526 
	C103.413002,74.388680 104.845169,73.123131 106.666916,72.054863 
	C107.867088,72.146996 108.402214,72.679428 108.843651,73.752487 
	C109.246407,76.284485 108.623215,78.165016 106.828896,79.732765 
	C105.497231,80.896278 103.948433,82.043724 103.972366,84.497452 
z"/>
<path fill="#784835" opacity="1.000000" stroke="none" 
	d="
M109.131256,73.702942 
	C108.411713,73.517799 107.824760,73.027008 107.112457,72.272644 
	C106.980133,71.358353 106.973167,70.707634 106.965370,69.731636 
	C106.896889,68.931267 107.058884,68.545570 107.743889,68.143158 
	C109.192970,68.041389 110.091026,68.478920 110.882812,69.686852 
	C110.439781,71.108597 109.851814,72.252945 109.131256,73.702942 
z"/>
<path fill="#F1B7A2" opacity="1.000000" stroke="none" 
	d="
M106.441879,55.701958 
	C105.837616,56.527817 105.473717,56.991882 104.879700,57.641617 
	C104.378296,57.767776 104.107025,57.708256 103.590523,57.313362 
	C102.695648,55.728973 102.570847,54.346592 102.352264,52.572021 
	C104.398277,49.033226 105.851372,50.011402 107.088943,53.238590 
	C107.080246,54.254532 106.931747,54.810829 106.441879,55.701958 
z"/>
<path fill="#AF7E67" opacity="1.000000" stroke="none" 
	d="
M107.939499,67.798492 
	C107.848030,68.369492 107.627983,68.689964 107.186234,69.208405 
	C105.590210,68.963531 103.738159,69.057518 104.042587,66.394623 
	C104.812492,66.026604 105.543747,66.035645 106.641464,66.062973 
	C107.275597,66.570160 107.543259,67.059059 107.939499,67.798492 
z"/>
<path fill="#F1B7A2" opacity="1.000000" stroke="none" 
	d="
M104.466217,57.571419 
	C104.184708,58.368896 103.719849,58.910503 103.110718,59.687683 
	C102.684746,60.298157 102.306938,60.508362 101.519882,60.484783 
	C100.236191,59.774998 100.340477,58.901695 100.780243,57.691826 
	C101.098694,57.230011 101.251129,57.063953 101.689804,56.719940 
	C102.411652,56.418587 102.850861,56.397270 103.574127,56.675087 
	C103.996941,57.008301 104.139900,57.161926 104.466217,57.571419 
z"/>
<path fill="#7A4A37" opacity="1.000000" stroke="none" 
	d="
M106.387436,56.177700 
	C106.260612,55.570637 106.319702,55.077518 106.544144,54.248421 
	C107.033684,53.243095 107.585007,52.890545 108.631187,52.868950 
	C108.968391,54.362331 108.300720,55.498417 107.311523,56.810535 
	C106.957344,56.729465 106.796753,56.489529 106.387436,56.177700 
z"/>
<path fill="#7A4A37" opacity="1.000000" stroke="none" 
	d="
M100.817627,60.183144 
	C101.412415,59.978951 101.856422,59.969082 102.633446,59.941238 
	C102.927002,60.877758 102.772911,61.755520 101.262100,61.974937 
	C100.918060,61.793854 100.918076,61.593250 100.925659,61.091835 
	C100.933212,60.791027 100.666855,60.377468 100.817627,60.183144 
z"/>
<path fill="#97634E" opacity="1.000000" stroke="none" 
	d="
M68.812424,28.360987 
	C69.210396,26.824757 70.347557,26.536617 71.624786,26.018227 
	C77.527588,25.652679 82.469986,27.280151 87.040627,31.086740 
	C87.361580,31.649420 87.457092,31.892067 87.580666,32.524597 
	C86.975235,35.196201 85.266655,36.169998 82.745560,36.557701 
	C81.661682,36.226952 81.210434,35.669907 80.666061,34.744770 
	C79.717094,32.183624 77.657791,32.337856 75.557785,31.964073 
	C73.991837,31.608511 73.570091,32.307644 73.375885,33.729118 
	C71.116692,37.126198 68.424988,35.586575 65.505127,34.729530 
	C64.779900,34.202011 64.529678,33.780117 64.439644,32.902496 
	C64.627777,31.781731 65.263870,31.400286 66.075409,30.776768 
	C67.090439,30.263590 68.460060,31.598394 68.582535,29.482323 
	C68.571495,28.983212 68.588997,28.782595 68.812424,28.360987 
z"/>
<path fill="#805645" opacity="1.000000" stroke="none" 
	d="
M87.353310,32.005852 
	C82.928345,28.345385 77.240654,28.579094 72.342178,25.999107 
	C71.953201,25.992657 72.069649,25.626541 72.079376,25.434692 
	C73.508133,24.873262 74.927147,24.503681 76.710762,24.175390 
	C80.166092,26.529829 84.259445,25.707502 87.750595,27.776516 
	C88.757889,28.327993 89.515160,28.653238 90.582367,29.003160 
	C91.151573,31.422455 89.235085,31.510698 87.353310,32.005852 
z"/>
<path fill="#804E3B" opacity="1.000000" stroke="none" 
	d="
M67.259827,30.900143 
	C66.461189,31.255381 66.014618,31.547871 65.328156,31.959705 
	C64.931664,31.895611 64.775047,31.712173 64.798447,31.214901 
	C64.736069,30.120171 64.493683,29.339275 64.122147,28.272827 
	C64.003189,27.214375 64.013374,26.441477 64.041443,25.281082 
	C65.490547,25.925432 66.921761,26.957277 68.685661,28.064558 
	C69.018349,28.139994 68.929207,28.332024 68.937584,28.437550 
	C69.096718,29.654081 68.480713,30.319242 67.259827,30.900143 
z"/>
<path fill="#F7F9F9" opacity="1.000000" stroke="none" 
	d="
M89.525902,103.841751 
	C89.972542,103.965790 89.978043,104.142471 89.976990,104.584183 
	C89.518463,104.919334 89.066490,104.989449 88.284515,105.154129 
	C87.358337,105.522118 86.663727,105.450951 85.770279,105.874451 
	C85.456322,105.966019 85.512245,105.995575 85.520271,105.964981 
	C85.268257,106.123779 85.008209,106.313179 84.354645,106.223267 
	C82.445518,104.572250 80.532005,105.380928 78.448280,104.942886 
	C78.308472,104.449844 78.554451,104.022240 78.924301,103.383247 
	C82.308586,104.595108 85.724937,103.852180 89.525902,103.841751 
z"/>
<path fill="#000000" opacity="1.000000" stroke="none" 
	d="
M83.966415,106.305862 
	C84.222122,105.913902 84.483101,105.883858 85.136185,105.894104 
	C85.449097,106.361786 85.369896,106.789185 85.323708,107.544724 
	C85.361229,108.080795 85.365730,108.288727 85.392418,108.807838 
	C85.339859,110.803482 85.265106,112.487953 85.145660,114.593491 
	C83.609161,114.835686 84.210922,112.973152 82.892181,112.210693 
	C82.744446,111.186447 82.785736,110.454575 82.918152,109.368706 
	C84.385918,108.665382 83.909714,107.556229 83.966415,106.305862 
z"/>
<path fill="#B16B62" opacity="1.000000" stroke="none" 
	d="
M85.877930,106.003937 
	C85.836349,105.208618 86.544098,105.173126 87.605690,105.198677 
	C87.954529,105.248703 87.972313,105.597176 87.980087,105.770889 
	C87.425079,105.977020 86.862312,106.009438 85.877930,106.003937 
z"/>
<path fill="#B16B62" opacity="1.000000" stroke="none" 
	d="
M85.589310,109.000977 
	C85.325974,108.915146 85.237350,108.711281 85.252716,108.190140 
	C85.492485,108.209549 85.628250,108.546234 85.589310,109.000977 
z"/>
<path fill="#815543" opacity="1.000000" stroke="none" 
	d="
M60.996552,69.281021 
	C61.179012,69.191513 61.377995,69.337334 61.544151,69.514023 
	C61.565769,69.537010 61.418327,69.718987 61.178997,69.921585 
	C61.008804,70.015862 61.002884,69.525925 60.996552,69.281021 
z"/>
<path fill="#643722" opacity="1.000000" stroke="none" 
	d="
M109.220932,52.953270 
	C108.369568,53.253742 107.779533,53.539734 106.949493,53.869087 
	C105.848274,52.712299 106.129631,49.085518 103.134842,52.610245 
	C102.822433,53.055653 102.582283,53.154194 102.000717,53.065018 
	C100.818756,51.783257 100.762840,50.506882 100.842834,48.840069 
	C101.168625,46.293110 102.853165,44.766788 103.601845,42.435017 
	C103.754166,41.401829 103.908905,40.723537 104.551743,39.511269 
	C107.484093,41.394089 107.274208,45.131641 109.572311,47.909554 
	C109.910789,49.071747 109.896179,50.161961 109.884445,51.663582 
	C109.887329,52.074993 109.924919,52.540855 109.963425,52.771370 
	C109.828705,52.980858 109.655487,52.959824 109.220932,52.953270 
z"/>
<path fill="#804E3B" opacity="1.000000" stroke="none" 
	d="
M103.996033,35.001289 
	C104.295288,36.095451 104.599060,37.188782 104.936203,38.621452 
	C104.969582,38.960796 104.977150,38.980999 104.970184,38.977428 
	C103.290398,40.733925 101.063629,41.235012 98.430557,41.684082 
	C96.970596,41.525059 96.191101,40.945019 95.584442,39.631798 
	C95.532257,37.522259 97.044464,36.935188 98.385269,35.769341 
	C99.718475,34.933182 100.854851,34.577095 102.402344,34.360744 
	C102.989769,34.417347 103.218842,34.484074 103.723022,34.779705 
	C103.998131,35.008614 104.000542,35.000462 103.996033,35.001289 
z"/>
<path fill="#EEB59D" opacity="1.000000" stroke="none" 
	d="
M77.765228,109.063393 
	C77.062653,107.794411 76.699493,106.411827 78.619385,106.130737 
	C80.256599,105.891029 81.976456,105.756416 82.049347,108.593124 
	C80.729820,109.004410 79.437675,109.020058 77.765228,109.063393 
z"/>
<path fill="#633A24" opacity="1.000000" stroke="none" 
	d="
M72.139526,75.652710 
	C70.440392,75.804077 69.548141,74.898712 68.383423,73.828110 
	C66.720215,72.918350 66.056709,71.508255 65.084747,70.041695 
	C66.482719,65.660011 61.040371,63.727333 62.227642,59.176441 
	C62.652599,58.463882 62.852592,58.385323 63.371925,58.273701 
	C63.902260,58.266327 64.113258,58.292007 64.623680,58.421646 
	C66.048996,59.051075 66.714020,60.218189 68.189232,60.760792 
	C69.674629,61.238132 70.764816,61.830421 72.092270,62.636765 
	C72.540703,62.882076 72.718300,62.982029 73.162865,63.226898 
	C73.975243,63.641708 74.531609,63.884686 75.417480,64.141312 
	C76.736862,64.549698 77.758011,64.867622 78.927063,65.648361 
	C79.432961,66.565376 79.236610,67.186050 78.669662,68.047241 
	C77.964523,68.773087 77.402435,69.147804 76.620346,69.785492 
	C74.510239,71.438354 73.776901,73.677032 72.139526,75.652710 
z"/>
<path fill="#D5AA94" opacity="1.000000" stroke="none" 
	d="
M64.724670,69.741348 
	C66.315895,70.593521 67.626450,71.411278 68.083565,73.345062 
	C67.655220,74.078674 67.202309,74.489609 66.442917,74.986481 
	C66.590042,72.589050 63.953030,72.032028 63.086983,69.938858 
	C63.460037,69.628937 63.918941,69.697823 64.724670,69.741348 
z"/>
<path fill="#F1B7A2" opacity="1.000000" stroke="none" 
	d="
M61.398804,55.946438 
	C61.192596,55.202919 61.153545,54.464970 61.217014,53.371017 
	C61.813087,52.495556 62.416138,52.255051 63.458931,52.402481 
	C63.965725,52.641064 64.146133,52.780506 64.491058,53.220520 
	C64.775185,53.964535 64.826599,54.415176 64.718491,55.205086 
	C64.523087,55.730392 64.407623,55.924828 64.009926,56.305035 
	C63.285908,56.602184 62.847183,56.597237 62.150002,56.249382 
	C61.887966,56.042557 61.565960,55.952011 61.398804,55.946438 
z"/>
<path fill="#EEB59D" opacity="1.000000" stroke="none" 
	d="
M61.883888,56.300591 
	C62.376190,56.060375 62.864418,56.078194 63.714859,56.151863 
	C64.643036,56.813354 64.775406,57.528332 64.400009,58.637138 
	C64.190659,58.955723 63.701359,58.947861 63.462444,58.895058 
	C62.874020,58.722332 62.526192,58.597713 61.975151,58.279922 
	C61.706772,57.915745 61.643021,57.740772 61.711319,57.319637 
	C61.855522,56.901859 61.867668,56.730244 61.883888,56.300591 
z"/>
<path fill="#6B3C28" opacity="1.000000" stroke="none" 
	d="
M61.643227,57.228828 
	C61.843372,57.073479 62.068642,57.368504 62.128536,57.544174 
	C62.257660,57.948189 62.326885,58.176529 62.198505,58.703285 
	C62.000904,59.001701 62.000000,59.000000 62.000904,59.000908 
	C61.329231,58.630581 60.986801,58.145313 61.643227,57.228828 
z"/>
<path fill="#F4F6F6" opacity="1.000000" stroke="none" 
	d="
M93.134247,91.871201 
	C90.807793,94.042992 89.015015,94.172905 87.082062,91.464752 
	C84.992981,88.537872 82.580124,85.799141 80.027298,83.261185 
	C78.303543,81.547455 79.423241,81.201118 80.947220,80.347008 
	C81.290863,79.903168 81.444550,79.747223 81.903122,79.473709 
	C83.999405,78.981346 85.307373,78.034904 86.032227,75.922066 
	C86.293480,75.408325 86.418205,75.210045 86.808418,74.773392 
	C87.739029,74.192307 88.447037,74.102020 89.539200,74.261841 
	C92.491936,75.843552 94.450310,77.886169 95.452194,81.130295 
	C95.403709,83.099457 94.403564,84.299812 93.429199,85.835640 
	C93.066101,86.606598 92.896889,87.125641 93.280609,87.930939 
	C93.520409,88.346649 93.619583,88.514267 93.842087,88.951996 
	C94.075630,89.608093 94.164711,89.998962 94.093445,90.663010 
	C93.719284,91.172363 93.487930,91.412590 93.134247,91.871201 
z"/>
<path fill="#F4C8B2" opacity="1.000000" stroke="none" 
	d="
M92.014694,86.291283 
	C92.871307,84.738380 93.746979,83.514732 94.891525,82.115578 
	C95.430199,80.465828 94.653435,78.820618 96.128250,77.273361 
	C96.574615,76.950813 96.777824,76.858376 97.303421,76.856476 
	C100.145920,77.854340 100.157135,79.875908 99.812973,82.409027 
	C99.481453,83.043594 99.218048,83.294197 98.803146,83.777313 
	C98.284859,85.213333 98.900375,86.728241 97.266708,87.828110 
	C96.564682,88.365936 96.107086,88.683296 95.361641,89.033310 
	C94.642662,89.408073 94.156029,89.531502 93.279617,89.232910 
	C92.945274,89.029259 93.002174,89.006310 92.985580,89.032120 
	C92.449257,88.325272 92.173332,87.499062 92.014694,86.291283 
z"/>
<path fill="#D5AA94" opacity="1.000000" stroke="none" 
	d="
M97.397797,87.980728 
	C97.425423,86.854324 97.828568,85.660065 98.441681,84.237816 
	C98.626793,85.371124 100.083969,87.065948 97.397797,87.980728 
z"/>
<path fill="#D5AA94" opacity="1.000000" stroke="none" 
	d="
M93.061493,89.273148 
	C93.419197,89.010864 93.893112,88.992477 94.720413,89.020020 
	C94.878258,89.610748 94.682732,90.155540 94.218918,90.816238 
	C93.692993,90.460434 93.435356,89.988731 93.061493,89.273148 
z"/>
<path fill="#70412E" opacity="1.000000" stroke="none" 
	d="
M64.695068,30.993704 
	C64.992043,31.097507 65.005638,31.293953 65.053757,31.784721 
	C65.074791,32.502514 65.061310,32.925976 65.051926,33.667950 
	C65.117516,34.581329 65.283325,35.153706 65.551003,36.013931 
	C67.382263,38.518074 70.881882,37.840313 72.412460,40.770157 
	C69.850784,44.908588 66.947037,42.382641 64.524719,41.119492 
	C62.391811,40.007256 62.586700,41.219662 62.195339,42.760128 
	C61.754086,43.767357 61.303841,44.327938 60.344604,44.875999 
	C59.481129,45.267384 58.964703,45.536446 58.172813,45.908218 
	C57.592056,44.590813 57.286758,43.170700 56.944031,41.386883 
	C58.575878,39.642204 57.890430,37.365128 58.963100,35.374802 
	C59.721493,34.229729 60.620796,33.684231 61.743847,32.930260 
	C62.823471,32.228397 63.617577,31.657370 64.695068,30.993704 
z"/>
<path fill="#5E3520" opacity="1.000000" stroke="none" 
	d="
M60.007729,45.368092 
	C60.258930,44.504196 60.520302,44.010075 60.890991,43.258125 
	C64.659149,41.831131 64.095078,45.538391 65.685028,47.291397 
	C66.140388,48.673046 66.183563,49.704361 65.845688,51.111908 
	C65.570160,51.685207 65.421997,51.893761 64.928970,52.265312 
	C63.825645,52.301826 63.141739,52.000977 62.263100,51.278404 
	C62.646152,48.761009 59.876938,47.797352 60.007729,45.368092 
z"/>
<path fill="#EEB59D" opacity="1.000000" stroke="none" 
	d="
M61.916306,51.267277 
	C62.625511,51.116127 63.248032,51.222645 64.040627,51.606754 
	C64.269760,52.106884 64.328827,52.329418 64.127296,52.778595 
	C63.229259,53.004898 62.591812,53.004559 61.636948,53.009613 
	C61.489563,52.518322 61.659595,52.021633 61.916306,51.267277 
z"/>
<path fill="#E3E7E8" opacity="1.000000" stroke="none" 
	d="
M90.694794,9.051695 
	C91.093414,10.983263 89.410263,10.861657 88.185814,11.738991 
	C87.232071,11.615185 86.482368,11.238420 85.438202,10.738415 
	C86.367630,10.149641 87.591515,9.684109 88.926407,8.879760 
	C89.477867,8.681826 89.918343,8.822708 90.694794,9.051695 
z"/>
<path fill="#E3E7E8" opacity="1.000000" stroke="none" 
	d="
M94.008202,10.754068 
	C92.342049,11.643899 93.247223,10.238625 92.951141,9.505428 
	C93.685402,9.298978 93.986282,9.758138 94.008202,10.754068 
z"/>
<path fill="#804E3B" opacity="1.000000" stroke="none" 
	d="
M61.922882,32.601936 
	C61.975582,34.273438 61.223454,35.016048 59.372620,34.999386 
	C58.991184,33.803272 59.504517,32.880074 60.794388,32.047993 
	C61.368553,32.003006 61.611397,32.177399 61.922882,32.601936 
z"/>
<path fill="#F3F6F8" opacity="1.000000" stroke="none" 
	d="
M77.416214,79.719513 
	C77.107956,78.478935 77.075806,77.135185 77.056732,75.387833 
	C77.084412,74.577202 77.186806,74.192291 77.512115,73.559387 
	C77.888092,72.942947 78.134789,72.608192 78.624603,72.056549 
	C79.603340,71.259056 80.449959,71.147842 81.672150,71.427818 
	C82.601799,71.894066 83.058838,72.390129 83.487953,73.342026 
	C83.676270,74.376534 83.535461,75.048729 83.154877,76.022064 
	C82.897224,76.534996 82.778587,76.731934 82.438202,77.192543 
	C81.707130,77.930077 81.086426,78.217300 80.165131,78.660675 
	C79.141495,79.085045 78.416908,79.350685 77.416214,79.719513 
z"/>
<path fill="#AFA9A1" opacity="1.000000" stroke="none" 
	d="
M80.144844,78.951019 
	C80.003349,77.933952 80.207649,77.099617 81.612808,76.860077 
	C82.675491,77.506691 82.776314,78.383339 82.249649,79.722618 
	C81.982651,80.102379 81.561073,80.053108 81.349121,80.056114 
	C80.899323,79.733627 80.661469,79.408127 80.144844,78.951019 
z"/>
<path fill="#F8EFEC" opacity="1.000000" stroke="none" 
	d="
M83.951492,13.111640 
	C83.800369,14.902362 88.316750,14.119864 86.045685,16.988834 
	C83.085175,20.728739 82.213348,16.336010 79.756363,16.291145 
	C81.422371,14.883966 82.505363,13.969220 83.951492,13.111640 
z"/>
<path fill="#70412E" opacity="1.000000" stroke="none" 
	d="
M88.043297,27.685188 
	C84.166763,27.867640 80.248779,27.997410 77.255692,24.432016 
	C77.503433,24.152657 77.931511,24.088631 78.685509,24.013271 
	C79.129333,23.864075 79.247238,23.726208 79.634819,23.624695 
	C80.382996,23.554277 80.861511,23.447508 81.707817,23.379543 
	C83.864883,23.625929 85.666771,23.412090 87.803650,23.748043 
	C88.570885,23.922415 88.991714,23.928146 89.702675,24.062260 
	C89.357208,25.249640 88.721596,26.308636 88.043297,27.685188 
z"/>
<path fill="#805645" opacity="1.000000" stroke="none" 
	d="
M87.973312,23.760265 
	C86.335983,23.888832 84.521896,23.860979 82.391716,23.625736 
	C83.446976,23.343849 84.818329,23.269350 86.603439,23.138363 
	C87.236542,23.316246 87.496338,23.490238 87.973312,23.760265 
z"/>
<path fill="#805645" opacity="1.000000" stroke="none" 
	d="
M79.735016,23.546331 
	C79.762291,23.847046 79.576035,23.961136 79.178581,24.002628 
	C79.098312,23.716702 79.283012,23.526592 79.735016,23.546331 
z"/>
<path fill="#D2DCE1" opacity="1.000000" stroke="none" 
	d="
M78.036575,73.940903 
	C77.901901,74.509079 77.702080,74.695557 77.261276,74.906601 
	C75.356003,74.908936 74.468178,75.877045 73.986816,77.753990 
	C73.781441,78.177322 73.608269,78.245956 73.214569,78.142990 
	C72.697571,77.440010 72.401093,76.908623 71.973564,76.101616 
	C71.927917,73.067558 73.366585,70.997337 75.561028,69.027206 
	C76.276741,68.659050 76.707817,68.541367 77.509567,68.584183 
	C78.021187,68.782227 78.194267,68.931084 78.501083,69.394257 
	C78.658791,69.933960 78.682755,70.159332 78.662460,70.719788 
	C78.271187,71.872803 77.933586,72.692917 78.036575,73.940903 
z"/>
<path fill="#EEB59D" opacity="1.000000" stroke="none" 
	d="
M73.100288,78.189232 
	C72.994049,77.971390 73.478752,78.009407 73.716690,78.059052 
	C73.954620,78.108688 74.002075,78.578865 73.962181,78.812271 
	C73.627327,78.895996 73.388741,78.683128 73.100288,78.189232 
z"/>
<path fill="#82513E" opacity="1.000000" stroke="none" 
	d="
M99.196594,35.756325 
	C99.057632,37.848820 97.437988,37.851620 96.204109,38.733727 
	C95.335838,39.444042 94.705147,39.201496 93.791061,38.700199 
	C92.296341,37.406406 91.243195,36.215916 91.277405,34.109917 
	C91.447716,33.573269 91.558220,33.373783 91.981323,33.035366 
	C92.878761,32.912361 93.463608,32.928284 94.341248,32.922890 
	C95.996185,33.257591 97.346909,33.645229 98.866180,34.560028 
	C99.228195,35.012604 99.313873,35.236252 99.196594,35.756325 
z"/>
<path fill="#B4846D" opacity="1.000000" stroke="none" 
	d="
M99.259933,34.660336 
	C97.505325,34.915668 95.828720,35.494678 94.794266,33.255760 
	C94.702103,32.739906 94.770172,32.578247 94.892654,32.158241 
	C96.157677,32.089817 97.304855,31.953688 98.664207,31.099644 
	C99.330910,31.328283 99.597656,31.746313 99.856461,32.578766 
	C99.894493,33.462063 99.766586,33.943676 99.259933,34.660336 
z"/>
<path fill="#6B3C28" opacity="1.000000" stroke="none" 
	d="
M87.026108,32.196629 
	C88.179604,31.174967 89.370621,30.360579 90.726967,29.287014 
	C91.893768,29.517632 91.992828,30.424009 91.970955,31.732025 
	C91.237549,32.700539 90.480721,33.265659 89.186020,33.586624 
	C88.353539,33.674946 87.889969,33.592175 87.235268,33.109306 
	C87.022385,32.823158 87.063622,32.403900 87.026108,32.196629 
z"/>
<path fill="#97634E" opacity="1.000000" stroke="none" 
	d="
M89.152000,32.914711 
	C89.742432,32.355865 90.539330,32.189213 91.649445,32.052109 
	C91.962677,32.081661 92.078201,32.508778 92.186058,32.702610 
	C92.293915,32.896442 92.075485,33.018528 91.959854,33.066315 
	C91.059158,33.739506 90.224602,33.726822 89.152000,32.914711 
z"/>
<path fill="#97634E" opacity="1.000000" stroke="none" 
	d="
M98.989197,35.206490 
	C99.004562,34.541634 99.018600,34.158871 99.044876,33.488213 
	C99.674011,32.401794 100.482025,32.275410 101.768600,32.768578 
	C102.137627,33.002853 102.556343,32.997669 102.765717,32.998470 
	C103.349091,33.380993 103.506493,33.837475 103.240601,34.684677 
	C101.922310,35.336151 100.811165,35.671516 99.346832,36.029816 
	C98.991714,35.864693 98.989792,35.676636 98.989197,35.206490 
z"/>
<path fill="#BE8D76" opacity="1.000000" stroke="none" 
	d="
M102.072189,32.688179 
	C101.366493,33.053169 100.595367,33.103485 99.440666,33.177055 
	C99.038864,32.701904 99.020630,32.203503 98.995567,31.332222 
	C99.444855,30.892746 99.900970,30.826147 100.702682,30.737352 
	C101.367760,31.267939 101.687248,31.820723 102.072189,32.688179 
z"/>
<path fill="#6F402D" opacity="1.000000" stroke="none" 
	d="
M103.274643,34.999985 
	C103.020348,34.556038 103.007240,34.111294 102.984619,33.332909 
	C103.302834,33.468441 103.630569,33.937614 103.978218,34.707703 
	C103.998131,35.008614 103.515839,34.999180 103.274643,34.999985 
z"/>
<path fill="#FAD6BF" opacity="1.000000" stroke="none" 
	d="
M88.632904,32.619331 
	C89.663452,32.698463 90.381355,32.874409 91.471741,33.082230 
	C92.289871,34.520908 92.735512,35.927711 93.410431,37.549770 
	C94.724457,38.872520 95.399475,40.134460 94.933487,42.030460 
	C94.468636,42.510872 94.183937,42.649723 93.891411,42.775200 
	C93.193474,43.074589 92.278763,42.811001 91.767265,43.592182 
	C92.279732,43.003548 92.984253,43.063690 94.004456,43.039093 
	C95.353470,43.068085 96.180588,43.500511 97.135094,44.448597 
	C97.550163,45.180977 97.649261,45.643433 97.542908,46.461807 
	C97.060959,47.383896 96.491173,47.672916 95.517380,47.785496 
	C94.696907,47.721725 94.213730,47.413086 93.449562,47.659828 
	C92.852524,48.142292 92.497658,48.516628 92.061203,49.182487 
	C91.850563,49.599339 91.776787,49.775013 91.618530,50.229771 
	C91.525352,53.367321 94.238922,53.360725 96.011353,54.829468 
	C94.028610,57.665455 97.318420,60.045872 96.299942,62.859001 
	C96.119637,63.148159 95.985634,63.054348 96.058907,63.090012 
	C95.215569,63.541695 94.259438,63.879253 93.193329,64.661842 
	C92.179741,65.144196 91.410332,65.447899 90.329536,65.748978 
	C89.837303,65.689835 89.656456,65.633316 89.225761,65.712242 
	C88.975906,65.847679 88.503517,65.988998 88.262375,66.040291 
	C87.839249,66.261490 87.657272,66.431389 87.138611,66.764969 
	C86.560852,66.994415 86.319786,67.060165 85.707878,67.179916 
	C83.841156,67.316795 82.347076,67.314079 80.488342,67.056793 
	C79.892212,66.865875 79.664307,66.758591 79.161591,66.391983 
	C77.789139,65.858559 76.691490,65.584450 75.307083,65.125168 
	C74.573112,64.530632 73.983505,64.499138 73.202148,64.185326 
	C72.964012,64.026070 72.995857,63.996769 72.987480,64.016281 
	C71.554832,62.677727 70.842308,61.172844 72.140862,59.349213 
	C72.952660,58.209152 73.043724,56.973171 72.906799,55.333347 
	C77.226852,50.958477 77.233841,50.733295 72.932114,47.556618 
	C71.108055,45.692551 71.749901,44.427513 73.676025,43.191093 
	C75.025345,42.709877 75.831367,42.093399 76.435593,40.768799 
	C78.080269,38.802509 78.964325,36.520145 81.675941,35.883110 
	C84.001991,35.938759 84.939690,34.016541 86.813126,33.087650 
	C87.455009,32.787487 87.887642,32.751820 88.632904,32.619331 
z"/>
<path fill="#F1B7A2" opacity="1.000000" stroke="none" 
	d="
M96.429489,63.096344 
	C95.970314,61.869316 95.888229,60.667019 94.621758,59.766682 
	C91.661430,57.662186 93.615784,56.444714 95.740280,54.994091 
	C95.876945,54.459362 95.859192,54.239429 96.108795,53.823612 
	C97.665062,53.388306 98.963783,53.226341 100.597023,53.167294 
	C101.129082,53.277157 101.335533,53.354534 101.829956,53.598263 
	C102.451187,54.627792 102.111465,55.532085 102.132401,56.712730 
	C101.985504,57.020100 102.004631,56.998058 102.015816,56.988693 
	C100.483177,57.645794 100.355530,59.352539 99.211655,60.700722 
	C98.228775,61.623978 97.484055,62.334255 96.429489,63.096344 
z"/>
<path fill="#D9DEE0" opacity="1.000000" stroke="none" 
	d="
M97.538940,76.634850 
	C97.625824,76.947014 97.563660,76.910698 97.541306,76.938919 
	C95.088417,78.357712 93.056007,78.081268 91.328369,75.245590 
	C90.608421,74.320129 90.469147,73.602669 90.585175,72.470619 
	C90.740959,71.641846 90.881165,71.184090 91.230621,70.429108 
	C91.568291,69.957428 91.737602,69.795731 92.195816,69.434326 
	C94.832748,71.112167 96.000473,73.816895 97.538940,76.634850 
z"/>
<path fill="#E3EEF6" opacity="1.000000" stroke="none" 
	d="
M86.824356,66.197777 
	C87.101776,66.016563 87.561203,66.062889 87.791214,66.077240 
	C88.617706,66.832031 89.214188,67.572479 89.988472,68.546631 
	C90.275101,68.965034 90.383926,69.149742 90.473114,69.657143 
	C90.282593,70.382217 90.044769,70.741173 89.503777,71.277756 
	C88.893799,71.736435 88.514908,71.953812 87.820793,72.282356 
	C87.305923,72.477142 87.092911,72.537643 86.546982,72.616844 
	C85.511162,72.542351 84.962975,72.208633 84.501114,71.272369 
	C84.342216,69.802872 84.718842,68.754677 85.299454,67.424492 
	C85.779556,66.817261 86.138374,66.562401 86.824356,66.197777 
z"/>
<path fill="#E1836F" opacity="1.000000" stroke="none" 
	d="
M99.297607,60.860626 
	C99.299736,59.344193 99.640686,57.783791 101.689415,57.025444 
	C101.677620,57.765331 101.328239,58.551338 100.973625,59.663078 
	C100.968399,59.988815 100.906487,60.389729 100.919846,60.590378 
	C100.496048,60.796539 100.058876,60.802048 99.297607,60.860626 
z"/>
<path fill="#F1B7A2" opacity="1.000000" stroke="none" 
	d="
M93.269073,64.859924 
	C93.154167,63.385368 94.105034,62.953011 95.780533,63.078911 
	C95.615768,64.190712 94.555733,64.467384 93.269073,64.859924 
z"/>
<path fill="#D9DEE0" opacity="1.000000" stroke="none" 
	d="
M90.788719,69.136459 
	C91.317108,68.886116 91.673698,68.893463 92.257500,69.067719 
	C92.388138,69.392609 92.291565,69.550598 91.469742,69.854424 
	C90.701973,69.798225 90.659447,69.596184 90.788719,69.136459 
z"/>
<path fill="#F1B7A2" opacity="1.000000" stroke="none" 
	d="
M89.244514,65.905136 
	C89.249313,65.724480 89.522728,65.601288 89.907143,65.612221 
	C89.849800,65.818436 89.681458,65.890518 89.244514,65.905136 
z"/>
<path fill="#6B3C28" opacity="1.000000" stroke="none" 
	d="
M102.455490,79.528893 
	C102.425598,79.477486 102.485390,79.580299 102.455490,79.528893 
z"/>
<path fill="#ACB2B5" opacity="1.000000" stroke="none" 
	d="
M90.769989,68.789291 
	C90.971405,69.074226 90.982300,69.269691 90.968498,69.757782 
	C90.788544,70.129021 90.633301,70.207642 90.232269,70.198364 
	C89.991310,69.885468 89.996132,69.660461 90.083618,69.107895 
	C90.166275,68.780334 90.579468,68.699814 90.769989,68.789291 
z"/>
<path fill="#E1836F" opacity="1.000000" stroke="none" 
	d="
M102.298866,57.007080 
	C101.680946,56.219723 101.024399,55.451218 101.833389,54.298103 
	C101.809792,53.836124 101.715202,53.632473 101.831978,53.166580 
	C102.212769,52.919327 102.382187,52.934319 102.807098,52.953209 
	C104.244972,53.780670 103.992928,54.996517 103.896027,56.506554 
	C103.440056,56.901138 103.026146,56.947601 102.298866,57.007080 
z"/>
<path fill="#82513E" opacity="1.000000" stroke="none" 
	d="
M81.974060,35.705296 
	C80.513794,37.603680 79.030655,39.194408 77.228256,40.888214 
	C76.579422,41.335190 76.175423,41.536251 75.358612,41.590134 
	C74.557442,41.428352 74.127449,41.243908 73.429756,40.809292 
	C70.979591,37.751297 67.019386,38.631287 64.275467,36.220215 
	C64.201653,35.424797 64.379448,34.870953 64.806641,34.151779 
	C67.559845,33.006973 70.221741,36.553005 72.849106,33.420891 
	C73.180321,32.979351 73.323265,32.837734 73.768150,32.667278 
	C74.468636,32.721855 74.854347,32.845379 75.503372,33.140369 
	C75.956940,33.371822 76.134499,33.471531 76.574554,33.720802 
	C77.607536,34.367050 78.366219,34.162148 79.432022,33.732147 
	C79.959137,33.619732 80.177032,33.607105 80.670959,33.770538 
	C81.281723,34.430279 81.616455,34.913960 81.974060,35.705296 
z"/>
<path fill="#B4846D" opacity="1.000000" stroke="none" 
	d="
M76.308792,34.370609 
	C75.925407,34.163055 75.438850,34.095810 75.196213,34.057877 
	C74.686554,33.620564 74.516617,33.182400 74.397614,32.355240 
	C74.437683,31.773098 74.510651,31.546459 74.848358,31.080112 
	C77.243431,31.421968 80.268463,29.869240 81.058975,33.663216 
	C80.946999,33.946598 80.488762,34.030052 80.259346,34.070114 
	C78.969200,34.635963 77.890892,35.036427 76.308792,34.370609 
z"/>
<path fill="#BE8D76" opacity="1.000000" stroke="none" 
	d="
M67.050621,31.221233 
	C67.423027,30.298222 67.938293,29.633554 68.699760,28.755981 
	C69.749191,29.398176 71.381607,29.970331 69.920319,31.574223 
	C68.949768,32.639488 68.060608,32.722748 67.050621,31.221233 
z"/>
<path fill="#BE8D76" opacity="1.000000" stroke="none" 
	d="
M74.876404,30.597734 
	C75.085991,31.043282 75.058891,31.246162 75.009560,31.755262 
	C74.849510,32.243507 74.711693,32.425529 74.284744,32.791122 
	C73.995628,32.974693 73.512344,33.020470 73.274857,33.070721 
	C72.204323,32.437687 71.627693,31.635323 72.406563,30.609024 
	C73.002472,29.823820 73.840004,29.971954 74.876404,30.597734 
z"/>
<path fill="#6F3F2B" opacity="1.000000" stroke="none" 
	d="
M97.159157,45.370728 
	C96.163170,44.807922 95.410645,44.422928 94.351990,43.950699 
	C93.670364,43.535969 93.524773,43.120964 93.805252,42.362747 
	C95.184448,40.769276 93.616196,39.689526 93.672577,38.112518 
	C94.225418,38.084358 94.811111,38.403687 95.699051,38.854572 
	C96.490273,39.577938 96.979248,40.169750 97.734085,40.885597 
	C100.053879,42.481327 102.407127,40.367973 104.735733,41.774975 
	C105.486160,44.534180 102.881004,45.504513 102.091995,47.783184 
	C101.636940,48.383915 101.270302,48.552933 100.549980,48.602077 
	C100.047859,48.502983 99.854660,48.430389 99.402679,48.189034 
	C98.290825,47.388424 97.895111,46.434383 97.159157,45.370728 
z"/>
<path fill="#6F402D" opacity="1.000000" stroke="none" 
	d="
M104.990067,41.620998 
	C102.730812,41.253815 100.303551,44.744061 98.070190,41.365429 
	C100.074455,40.339928 102.148964,39.670231 104.593338,38.987194 
	C104.973419,39.730286 104.983620,40.486717 104.990067,41.620998 
z"/>
<path fill="#DDA990" opacity="1.000000" stroke="none" 
	d="
M99.824677,48.281715 
	C100.466560,47.970741 100.891594,47.952850 101.633766,48.019989 
	C101.968643,49.438633 101.986389,50.772247 102.023743,52.505096 
	C102.021965,53.093651 102.000587,53.282967 101.941803,53.756027 
	C101.904388,54.039776 101.462761,54.008572 101.241562,54.000072 
	C99.836105,52.924305 99.746246,51.453850 99.525055,49.657402 
	C99.531235,49.054836 99.569534,48.814816 99.824677,48.281715 
z"/>
<path fill="#F1B7A2" opacity="1.000000" stroke="none" 
	d="
M72.617798,54.461060 
	C74.599846,56.526104 75.993637,58.199181 73.219063,59.909966 
	C71.535446,60.948063 72.802277,62.179214 72.954224,63.687679 
	C71.542587,63.324390 70.106071,62.612991 68.318680,61.864136 
	C67.136131,61.158913 66.701385,60.219109 66.140518,59.005573 
	C65.904961,58.108685 65.803474,57.497768 65.547997,56.597527 
	C65.414482,56.083843 65.371132,55.873829 65.319382,55.338440 
	C65.378632,54.572693 65.541695,54.169422 66.051064,53.594707 
	C67.158325,52.990784 68.046478,52.956131 69.280800,53.102478 
	C70.470665,53.378407 71.295189,53.698452 72.617798,54.461060 
z"/>
<path fill="#C9CBCA" opacity="1.000000" stroke="none" 
	d="
M66.796600,57.932560 
	C67.259048,59.198387 67.585403,60.195801 67.939774,61.509945 
	C65.032478,63.615253 66.027229,59.883820 64.424927,59.213387 
	C64.168854,58.266006 64.147049,57.576294 64.101158,56.547150 
	C64.077072,56.207718 64.074356,56.129635 64.054764,56.095837 
	C64.164093,55.908493 64.292999,55.754951 64.712021,55.521790 
	C65.196228,55.492622 65.390320,55.543076 65.784035,55.818573 
	C65.983650,56.043621 66.004112,56.008739 65.991875,56.021523 
	C66.466019,56.469215 66.473686,57.104099 66.796600,57.932560 
z"/>
<path fill="#E3EEF6" opacity="1.000000" stroke="none" 
	d="
M78.804153,66.379166 
	C78.886780,66.132660 79.377174,66.083862 79.621170,66.049423 
	C81.585510,66.943176 82.830650,68.155830 82.255684,70.673050 
	C80.724342,71.868004 79.627052,71.190765 78.265945,70.195572 
	C77.994987,69.924187 78.014046,69.485779 78.019669,69.266441 
	C77.831032,68.875328 77.636757,68.703545 77.699524,68.239807 
	C78.211548,67.507126 78.466537,67.066399 78.804153,66.379166 
z"/>
<path fill="#ACB2B5" opacity="1.000000" stroke="none" 
	d="
M77.680557,68.053757 
	C77.990364,68.129562 78.024162,68.311287 78.041634,68.770065 
	C77.547379,69.040749 77.069458,69.034386 76.237373,68.967407 
	C76.390320,68.657745 76.897438,68.408714 77.680557,68.053757 
z"/>
<path fill="#F1B7A2" opacity="1.000000" stroke="none" 
	d="
M73.125076,64.284569 
	C73.528442,64.170914 74.092865,64.315750 74.838806,64.700287 
	C74.442261,64.807686 73.864197,64.675377 73.125076,64.284569 
z"/>
<path fill="#815543" opacity="1.000000" stroke="none" 
	d="
M62.307823,58.971523 
	C62.024803,58.787186 62.048698,58.572670 62.130516,58.039001 
	C62.466015,57.930378 62.743599,58.140907 63.122356,58.596848 
	C63.020599,58.875286 62.817673,58.908314 62.307823,58.971523 
z"/>
<path fill="#97634E" opacity="1.000000" stroke="none" 
	d="
M66.044487,55.700306 
	C65.983650,56.043621 65.577576,56.259266 65.350571,56.222992 
	C64.610947,55.707634 64.530548,55.046997 64.206345,54.138565 
	C64.032944,53.861195 63.985550,53.426369 63.926128,53.215805 
	C63.924362,52.818542 63.982018,52.631851 64.125183,52.164749 
	C64.410278,51.874912 64.609863,51.865475 65.108414,51.877228 
	C65.607018,51.874741 65.806664,51.851074 66.214294,52.046356 
	C66.567856,52.648575 66.604118,53.041920 66.381256,53.707291 
	C66.189384,54.431828 66.147354,54.894409 66.044487,55.700306 
z"/>
<path fill="#E1836F" opacity="1.000000" stroke="none" 
	d="
M63.989876,54.227432 
	C64.360474,54.416176 64.687996,54.971157 65.069550,55.856430 
	C64.937950,56.202564 64.752327,56.218403 64.300941,56.148140 
	C64.005722,55.572582 63.976261,55.083122 63.989876,54.227432 
z"/>
<path fill="#BC6D66" opacity="1.000000" stroke="none" 
	d="
M90.738358,73.865768 
	C93.114624,74.684593 93.548164,78.254990 97.093384,77.003723 
	C95.659538,77.926651 96.397720,80.002098 95.383148,81.680168 
	C94.150482,79.356209 91.900375,77.742493 90.101921,75.365067 
	C89.794106,74.551712 89.932266,74.132912 90.738358,73.865768 
z"/>
<path fill="#B5B0AB" opacity="1.000000" stroke="none" 
	d="
M82.170357,80.366806 
	C81.980095,79.272224 81.977547,78.442062 81.951126,77.195389 
	C81.927254,76.778870 81.983170,76.349831 82.061584,76.148209 
	C83.423706,75.119972 84.751801,74.655533 86.581398,75.708588 
	C86.809608,78.902885 85.117714,80.290871 82.170357,80.366806 
z"/>
<path fill="#B16B62" opacity="1.000000" stroke="none" 
	d="
M91.118942,73.673431 
	C90.811768,74.138824 90.516724,74.359032 90.088531,74.824265 
	C89.222229,75.042976 88.489082,75.016663 87.390839,75.027802 
	C86.365303,74.904556 85.974220,74.454483 85.701355,73.543884 
	C85.860611,72.853554 86.133446,72.560829 86.737419,72.160782 
	C86.961205,71.949547 86.996460,71.985550 86.979996,71.971855 
	C87.434471,71.581421 88.019501,71.523796 88.844078,71.279114 
	C89.312111,70.940765 89.498466,70.696251 89.829605,70.276489 
	C89.986488,70.110474 90.465012,70.075928 90.704407,70.063156 
	C90.943794,70.050392 90.966934,70.024895 90.960602,70.033424 
	C91.522934,70.422241 91.460754,71.071693 91.750671,71.895172 
	C91.625366,72.587708 91.378220,73.007973 91.118942,73.673431 
z"/>
<path fill="#9E9690" opacity="1.000000" stroke="none" 
	d="
M85.842957,72.924820 
	C86.373093,73.594559 86.608818,74.075897 86.935135,74.811256 
	C87.025742,75.065269 87.015747,75.522858 86.972496,75.747566 
	C85.597679,75.979622 84.266113,75.986969 82.537277,75.970459 
	C82.413269,75.477448 82.686539,75.008308 83.120712,74.313034 
	C83.801567,73.241104 84.491058,72.679916 85.842957,72.924820 
z"/>
<path fill="#D5AA94" opacity="1.000000" stroke="none" 
	d="
M91.769745,86.155304 
	C92.908127,86.516533 93.041588,87.414146 93.011520,88.711487 
	C91.814201,88.512352 90.777237,87.904808 91.769745,86.155304 
z"/>
<path fill="#6B3C28" opacity="1.000000" stroke="none" 
	d="
M73.757462,40.161148 
	C74.264717,40.173019 74.542694,40.366898 74.944435,40.786282 
	C75.580627,41.658283 75.722603,42.372356 75.205307,43.447372 
	C73.754822,44.428230 70.924736,43.697178 72.766296,46.814201 
	C72.873856,47.283691 72.517403,47.529915 71.754562,47.700825 
	C69.461739,47.439377 67.641899,48.403786 65.405907,48.299576 
	C63.083157,47.098808 63.550335,44.332100 61.346664,43.065163 
	C61.405342,41.408791 61.810379,39.817272 62.250732,38.086983 
	C64.995377,40.212585 67.691185,42.467178 71.760109,41.270760 
	C72.364258,40.444572 72.932449,40.361874 73.757462,40.161148 
z"/>
<path fill="#784835" opacity="1.000000" stroke="none" 
	d="
M73.722305,39.791519 
	C73.522591,40.303699 73.058441,40.628254 72.297256,40.977028 
	C69.836090,38.718647 65.809830,39.834435 64.072548,36.331310 
	C67.187737,37.137054 71.034363,36.518787 73.722305,39.791519 
z"/>
<path fill="#F1B7A2" opacity="1.000000" stroke="none" 
	d="
M65.137375,48.563316 
	C67.411598,47.107391 69.487343,45.219345 72.583138,46.510040 
	C72.583923,47.882782 71.901024,48.451664 70.948547,49.200813 
	C70.347992,49.624794 70.008484,49.864120 69.446823,50.309578 
	C69.074684,50.648220 68.928490,50.786129 68.551682,51.118267 
	C67.815117,51.655849 67.257988,51.867950 66.357048,51.934067 
	C66.059158,51.905815 65.732712,51.838051 65.570045,51.868233 
	C65.329536,50.910179 65.251694,49.921951 65.137375,48.563316 
z"/>
<path fill="#ACB2B5" opacity="1.000000" stroke="none" 
	d="
M86.367996,72.992714 
	C85.384552,73.408127 84.631737,73.703033 83.580261,74.042419 
	C82.899490,73.590187 82.517372,73.093475 82.189774,72.001175 
	C82.370506,71.242874 82.496712,71.080154 82.871262,70.732239 
	C83.523224,70.428894 83.929741,70.424004 84.573486,70.718185 
	C85.316376,71.236137 85.824486,71.552002 86.646904,71.908707 
	C86.840347,72.257103 86.719482,72.564659 86.367996,72.992714 
z"/>
<path fill="#ACB2B5" opacity="1.000000" stroke="none" 
	d="
M77.983826,70.164307 
	C79.111092,70.279938 80.227203,70.635696 81.659256,71.512924 
	C81.975197,72.034401 81.996712,72.006599 82.009033,71.993202 
	C81.139938,72.115440 80.258530,72.251068 79.219040,72.683762 
	C77.796768,73.382179 77.639832,72.549393 77.767105,71.258896 
	C77.975960,70.885170 77.972672,70.404427 77.983826,70.164307 
z"/>
<path fill="#8D6E5E" opacity="1.000000" stroke="none" 
	d="
M77.650841,71.043617 
	C78.147263,71.488396 78.318565,72.091629 78.775406,72.837837 
	C78.928566,73.335609 78.796181,73.690392 78.358002,74.157356 
	C76.466705,73.565186 77.008469,72.357040 77.650841,71.043617 
z"/>
<path fill="#6B452F" opacity="1.000000" stroke="none" 
	d="
M68.698242,49.209404 
	C69.817734,48.362995 70.823441,47.732014 72.315765,47.027313 
	C72.802383,46.953598 73.023666,46.939377 73.092682,46.937012 
	C75.777992,46.694386 77.442116,48.021114 77.476265,50.486607 
	C77.506134,52.643135 76.697647,54.787392 73.482407,54.875843 
	C73.127182,54.872013 73.134125,54.919262 73.140320,54.896442 
	C72.022522,54.333820 70.808319,53.884510 70.606995,52.401894 
	C70.592918,52.298218 70.662308,52.183208 70.692879,52.073471 
	C70.421646,52.270565 70.298988,52.542130 70.084213,53.083153 
	C68.749672,53.283581 68.317360,52.561092 68.067505,51.307274 
	C68.080574,50.962330 68.143768,50.601372 68.104309,50.422451 
	C68.181053,49.934456 68.354263,49.661556 68.698242,49.209404 
z"/>
<path fill="#6F4A34" opacity="1.000000" stroke="none" 
	d="
M100.026878,47.992355 
	C100.041519,47.988628 99.636986,48.089493 99.614319,48.296715 
	C100.498871,51.273315 99.222527,52.805714 96.369553,53.820023 
	C96.049294,54.013664 95.863640,54.321476 95.879166,54.500385 
	C91.556503,55.414173 89.705200,53.599449 90.666725,49.097645 
	C91.196892,49.159878 91.388962,49.372200 91.582420,49.583260 
	C91.779167,49.797897 91.711174,49.733101 91.164017,49.198318 
	C90.833603,47.929489 91.766846,47.625095 92.653969,46.927155 
	C93.119164,46.725410 93.302437,46.675331 93.766724,46.577705 
	C94.795204,46.681232 95.542671,46.832298 96.646271,47.120964 
	C97.887245,46.964188 98.690498,47.264782 99.751297,47.785683 
	C100.013542,47.971706 100.012238,47.996086 100.026878,47.992355 
z"/>
<path fill="#DB9883" opacity="1.000000" stroke="none" 
	d="
M84.969360,70.620842 
	C84.450760,70.927086 84.093262,70.933899 83.466934,70.942459 
	C83.003616,71.086510 82.809128,71.228798 82.316315,71.166969 
	C82.017990,70.962845 82.011658,71.000092 82.029541,70.991623 
	C82.168686,69.204834 80.735130,68.112091 80.001175,66.332947 
	C81.612762,66.004089 83.360374,65.993195 85.542000,66.001816 
	C86.116554,66.189713 86.257080,66.358078 86.271286,66.830200 
	C85.806801,68.196434 85.468628,69.258919 84.969360,70.620842 
z"/>
<path fill="#DF6D62" opacity="1.000000" stroke="none" 
	d="
M84.513901,61.548676 
	C82.875237,61.744267 81.656700,61.550652 80.503128,60.128838 
	C82.368149,60.087349 83.962456,59.297348 85.390442,60.711391 
	C85.426888,60.747475 85.297646,60.990845 85.205811,61.105663 
	C85.106537,61.229790 84.960411,61.316444 84.513901,61.548676 
z"/>
<path fill="#97634E" opacity="1.000000" stroke="none" 
	d="
M93.676025,42.060837 
	C94.024994,42.487968 94.016121,42.881233 94.026558,43.568981 
	C92.894310,43.826344 91.122559,44.755409 90.793907,43.325642 
	C90.489273,42.000381 92.238953,42.090778 93.676025,42.060837 
z"/>
<path fill="#815543" opacity="1.000000" stroke="none" 
	d="
M75.313744,43.817406 
	C74.975105,43.053528 74.999741,42.372520 75.046295,41.351650 
	C75.477226,41.005787 75.886238,40.999783 76.602127,40.992535 
	C76.264153,41.861774 77.841209,43.673244 75.313744,43.817406 
z"/>
<path fill="#DDA990" opacity="1.000000" stroke="none" 
	d="
M99.989822,47.653847 
	C99.101616,49.440525 98.271576,48.316944 97.210968,47.574165 
	C96.976753,46.799427 96.951118,46.340290 96.920593,45.537037 
	C97.932503,45.907272 98.949303,46.621628 99.989822,47.653847 
z"/>
<path fill="#F1B7A2" opacity="1.000000" stroke="none" 
	d="
M86.344574,66.985573 
	C86.106354,66.950020 86.067734,66.766098 86.002563,66.301758 
	C86.163246,66.017723 86.350471,66.014107 86.819733,66.013519 
	C86.972137,66.328323 86.786263,66.601868 86.344574,66.985573 
z"/>
<path fill="#DDA990" opacity="1.000000" stroke="none" 
	d="
M93.909592,46.421661 
	C93.873123,46.619297 93.698517,46.708424 93.229889,46.786522 
	C93.214401,46.621380 93.492928,46.467270 93.909592,46.421661 
z"/>
<path fill="#F6C4AC" opacity="1.000000" stroke="none" 
	d="
M96.346588,54.146461 
	C95.570618,51.475243 100.609482,52.271133 99.313873,48.787552 
	C101.318909,49.667057 100.978905,51.459419 101.011711,53.566254 
	C99.549576,53.905544 98.187836,55.478355 96.346588,54.146461 
z"/>
<path fill="#ACB2B5" opacity="1.000000" stroke="none" 
	d="
M91.919449,71.830597 
	C91.566765,71.658958 91.261002,71.150482 90.954758,70.341980 
	C90.954269,70.041954 91.407631,70.067261 91.630081,70.106598 
	C91.890472,70.595215 91.928421,71.044487 91.919449,71.830597 
z"/>
<path fill="#ACB2B5" opacity="1.000000" stroke="none" 
	d="
M88.795891,71.094345 
	C88.596542,71.436150 88.079437,71.696251 87.262924,71.957260 
	C87.213547,71.234741 87.787766,71.030663 88.795891,71.094345 
z"/>
<path fill="#97634E" opacity="1.000000" stroke="none" 
	d="
M76.004471,34.471725 
	C77.020409,34.125809 78.115417,34.088562 79.620178,34.080750 
	C78.918129,35.532833 77.819550,37.033337 76.004471,34.471725 
z"/>
<path fill="#97634E" opacity="1.000000" stroke="none" 
	d="
M74.094482,33.199299 
	C74.076530,32.650543 74.259880,32.401985 74.766502,32.145248 
	C74.987534,32.496544 74.987732,32.931610 74.970749,33.693306 
	C74.633591,33.906174 74.380180,33.707493 74.094482,33.199299 
z"/>
<path fill="#F6C4AC" opacity="1.000000" stroke="none" 
	d="
M67.786163,50.985558 
	C68.499702,51.472561 68.918823,51.982792 69.574814,52.563766 
	C69.981369,52.856956 70.151047,53.079399 70.133850,53.677601 
	C68.955658,54.033478 67.964340,54.013599 66.602219,53.981483 
	C66.164162,53.512688 66.096916,53.056133 66.044411,52.252693 
	C66.536690,51.606804 67.014221,51.307796 67.786163,50.985558 
z"/>
<path fill="#C9CBCA" opacity="1.000000" stroke="none" 
	d="
M70.182724,54.307583 
	C69.936600,53.815723 69.926239,53.578094 69.863777,52.987488 
	C70.041122,52.066879 70.270569,51.499249 70.500008,50.931618 
	C70.704529,51.289833 70.884148,51.665348 71.118568,52.002789 
	C71.666435,52.791409 72.240616,53.561749 72.975327,54.606556 
	C72.237175,54.769684 71.327827,54.665749 70.182724,54.307583 
z"/>
<path fill="#E1836F" opacity="1.000000" stroke="none" 
	d="
M66.953133,57.870079 
	C66.556458,57.692047 66.180206,57.183121 65.891800,56.354252 
	C66.698158,56.280186 66.937546,56.842525 66.953133,57.870079 
z"/>
<path fill="#F6C4AC" opacity="1.000000" stroke="none" 
	d="
M68.624580,49.159470 
	C68.710236,49.315224 68.608444,49.636467 68.285744,50.100620 
	C68.188934,49.937340 68.313034,49.631149 68.624580,49.159470 
z"/>
<path fill="#E3EEF6" opacity="1.000000" stroke="none" 
	d="
M81.981659,71.229713 
	C82.213524,70.906448 82.409050,70.850052 82.901352,70.868942 
	C82.968895,71.240059 82.739677,71.535904 82.242828,71.933075 
	C81.965233,71.855125 81.955276,71.675850 81.981659,71.229713 
z"/>
<path fill="#BBBABE" opacity="1.000000" stroke="none" 
	d="
M90.979889,49.007156 
	C91.630898,49.411934 92.935257,48.393185 93.095467,49.926998 
	C93.121086,50.172291 92.898972,50.612976 92.694756,50.683487 
	C91.797737,50.993225 91.241653,50.646267 91.081909,49.303528 
	C91.006111,48.946392 91.010078,49.006641 90.979889,49.007156 
z"/>
</svg>