<svg xmlns="http://www.w3.org/2000/svg" xml:space="preserve" viewBox="0 0 128 128">
  <path d="M1 49c0-15.333.069-30.167-.067-45C.91 1.498 1.5.93 4 .937c40.667.09 81.333.09 122 0 2.5-.006 3.07.564 3.064 3.064-.09 40.667-.09 81.333 0 122 .006 2.5-.564 3.07-3.064 3.064-40.667-.09-81.333-.09-122 0-2.5.006-3.076-.563-3.065-3.064C1.04 100.5 1 75 1 49z"/><path fill="#F3F6F8" d="M72.492 94.324c.39-1.78-.92-3.336.643-4.897.57-1.943.76-3.59 1.099-5.571.55-.987 1.133-1.392 2.246-1.57 3.73 1.48 5.393 4.694 7.726 7.235 2.101 2.29 3.408 5.406 7.019 6.665.77.48 1.124.86 1.558 1.69.434 1.499.349 2.593-.316 4.021-.682.723-1.18.997-2.143 1.275-5.464.786-10.494.486-15.914-.356-3.65-2.27-1.764-5.362-1.918-8.492z"/><path fill="#F7F9F9" d="M66.78 11.447c1.026-.693 1.786-1.058 2.864-1.355.465.158.61.249.963.477.518.304.848.362 1.459.242.976-.55 1.682-1.01 2.669-1.65.348-.405.448-.575.824-.855 2.039 1.549 4.754.025 6.618 2.069-3.882 4.073-1.852 7.97-.464 12.096-8.538 1.935-12.9-.285-15.452-7.824-.243-1.267-.164-2.095.52-3.2z"/><path fill="#683B25" d="M77.25 82.628c-.754.5-1.279.732-1.998 1.182-.728.866-1.174 1.63-2.578 1.679-2.68.272-4.932.23-7.56-.272-.872-.297-1.365-.403-1.993-.727-.3-.553-.505-.86-.973-1.308-.217-.174-.15-.16-.168-.132-.336-.369-.64-.778-1.086-1.547-.866-2.767-2.297-5.012-1.824-8.055.298-.814.583-1.204 1.308-1.613 1.884.768 3.201 2.05 5.299 2.6 2.632 1.898 2.97 6.057 7.325 5.574 1.753-1.118 3.169-1.771 4.42.63.219.796.188 1.26-.172 1.989z"/><path fill="#CCDBE7" d="M105.292 20.809c-.21.314-.272.77-.2.99-.167.768-.499 1.277-.733 2.16-.6 1.482-1.59 2.277-2.685 3.4-.584.494-.958.722-1.681.998-1.743.099-2.927-.626-4.504-1.248-1.572-.739-2.982-1.104-3.874-2.736-.023-.821.15-1.25.73-1.834 4.138-1.284 7.182-3.383 9.168-7.37.461-.35.684-.439 1.266-.47 1.408.776 2.048 1.829 2.807 3.248.314 1.108.27 1.844-.294 2.862z"/><path fill="#6C3D29" d="M113.909 71.127c.168.377.1.376.125.353 1.817 2.666.048 5.09-.763 7.985-.94 1.102-1.656 1.82-2.694 2.55-.877.346-1.506.457-2.347.837-.228.22-.225.152-.191.157-.245.191-.494.41-.866.858-.152.198-.17.137-.139.145a5.236 5.236 0 0 0-.866.861c-.151.198-.16.131-.132.15-.404.341-.888.476-1.79.3-1.835-2.18-.692-3.82.57-5.35 1.356-1.642 2.681-3.266 3.044-5.858.55-1.933.997-3.494 2.797-4.65 1.619-.297 2.515.185 3.252 1.662z"/><path fill="#6B3C28" d="M106.195 61.22c.188.358.388.526.401 1.063.074 1.546-1.8 1.806-1.595 3.451.298 1.647 1.517 2.229 2.493 3.443.39 1.03.372 1.754.018 2.838-3.7 3.129-5.034 2.984-7.017-.62-1.471-2.673-2.284-5.518-1.093-8.93.74-1.117 1.608-1.593 2.363-2.646.624-1.09 1.08-1.886 1.87-2.885.807-.744 1.452-1.068 2.548-1.232.85.231 1.206.575 1.544 1.41.062 1.698-.291 2.888-1.532 4.107z"/><path fill="#CCDBE7" d="M62.556 23.11c-.117-.285-.289-.742-.391-.964-.866-1.003-.685-2.073-.923-3.379.388-1.602 1.15-2.578 2.27-3.74.525-.282.762-.334 1.344-.274 1.807 3.991 5.76 5.8 7.906 9.501.022.581-.004.814-.154 1.374-.792 1.311-1.8 1.884-3.064 2.669-2.362.817-3.653-.48-5.208-1.913a8.975 8.975 0 0 1-.815-.983c-.461-.822-.582-1.443-.965-2.292z"/><path fill="#F6C4AC" d="M91.23 111.643c-.284.507-.36.664-.502 1.072-.478 2.047.83 4.395-1.652 5.517-2.336 1.056-3.175-.949-4.531-2.6-.793-1.792-.857-3.297-.564-5.176.277-.95.826-1.468.455-2.528-.108-.82-.034-1.285.346-2.04.443-.431.661-.563 1.245-.819.882-.232 1.404-.286 2.334-.267 3.517.394 3.476 2.541 3.125 5.27-.018.678-.033.95-.256 1.571z"/><path fill="#B16B62" d="M84.857 114.763c1.487 1.08 1.713 3.585 3.993 2.673 1.837-.735 1.163-2.522 1.607-4.19.941 1.783 3.008 4.21.475 5.853-1.51.98-4.321 2.64-5.953-.908-.764-1.66-.826.416-1.304.582-2.447.85-5.205 3.27-6.407-1.714 2.925-.84 3.403-3.555 5.28-5.273 1.651.409 1.825 1.588 2.309 2.977z"/><path fill="#7D5D4D" d="M61.697 80.866c.238.709.268 1.139.281 1.891-7.616-1.14-10.13-6.063-7.185-14.298.88-1.403 2.07-.992 3.404-1.26 1.02-.116 1.694-.047 2.65.375.424.392.547.596.525 1.827-.466 1.381-.837 1.67-1.578 2.04-3.644 1.314-2.326 3.654-1.584 5.674.567 1.545 2.029 2.457 3.487 3.751z"/><path fill="#6F402D" d="M110.745 39.676c.203.325.293.74.277.953.88 1.682.296 3.305.452 5.243-.081.645-.152.897-.47 1.45-.418.498-.587.695-1.114 1.037-4.578-1.25-3.321-5.893-5.658-8.856-.634-1.599-1.084-2.848-.322-4.515 1.43-1.163 2.731-1.236 4.456-.745 2.053 1.41 1.302 3.557 2.38 5.433z"/><path fill="#B4BBC0" d="M92.205 102.292c.072-1.303.048-2.306.035-3.686.539-1.351.369-2.375.22-3.727.058-.549.113-.768.355-1.277 1.101-1.207 2.15-1.566 3.672-.826.288 2.85-.013 5.517.42 8.058.488 2.872-.987 3.976-3.51 5.04-.518.038-.684-.093-1.003-.502-.424-1.1-.49-1.933-.189-3.08z"/><path fill="#F8CEB7" d="M83.04 111.662c-1.622 2.145.71 7.44-5.295 5.09-.351-1.043-.384-1.99-.367-3.295.05-.555.05-.754.053-1.252-.06-.476-.122-.653-.307-1.083-.499-.704-.63-1.218-.298-2.15 1.455-1.234 2.85-1.265 4.694-1.034.674.212.932.331 1.506.738.743 1.095.762 1.909.014 2.986z"/><path fill="#815543" d="M61.109 68.065c-.934-.07-1.556-.077-2.488-.083-.85-.196-1.097-.58-.859-1.477 3.004-1.723 1.995-4.359 2.22-6.994-.497-.988-.464-1.693-.456-2.738.112-.555.215-.762.621-1.134.532-.187.76-.208 1.318-.134.496.25.662.405.94.882.193 1.21.211 2.109.587 3.3.593 3.534 4.201 5.832 2.622 9.908-.518.655-.92.883-1.742.954-1.589-.345-1.49-1.847-2.763-2.484z"/><path fill="#AD4D47" d="M96.856 92.68c-1.22.312-2.323.333-3.527 1.275-.657-.168-.906-.534-1.058-1.316.041-.782.172-1.205.564-1.875.586-.774 1.03-1.241 1.686-1.939.695-.619 1.219-.947 1.944-1.506 1.083-.855 1.279-1.845 1.64-3.1.293-.676.555-1 1.176-1.381.967-.021 1.396.434 2.034 1.108.628.65 1.045 1.082 1.55 1.82-1.219 3.006-4.236 4.148-6.009 6.915z"/><path fill="#6B3C28" d="M61.44 55.658c-.416.298-.623.313-1.142.348-1.733-1.17-1.996-2.994-3.009-4.774-.21-.251-.318-.593-.302-.772-.892-1.435-.084-2.64.286-4.215.645-.99 1.281-1.39 2.445-1.492 1.842 1.455 2.942 3.063 3.265 5.484-.047 1.087-.217 1.786-.502 2.823-.222 1.042-.456 1.706-1.04 2.598z"/><path fill="#BBBABE" d="M82.254 10.96c-1.796-2.384-5.273 2.017-6.372-2.38.367-1.98 1.593-1.464 2.93-1.257 3.308 1.096 6.363.706 9.773.43.509.192.659.379.863.92-.305 2.118-1.8 2.316-3.496 2.748-1.397.116-2.426-.223-3.698-.46z"/><path fill="#9E9690" d="M89.135 8.853c-.098-.312-.338-.717-.313-1.11 3.9-.395 7.376 1.113 11.043 2.832.73.983.676 1.661-.027 2.576-2.091.704-3.438-.458-5.237-1.217-.853-.497-1.354-.915-2.184-1.396-.701-.222-1.111-.328-1.834-.525-.72-.257-1.07-.505-1.448-1.16z"/><path fill="#856251" d="M56.57 41.232c-.416-4.393 1.13-8.18 3.082-12.101 1.232.328 1.58 1.16 1.779 2.432-.23 1.451-1.004 2.36-1.23 3.832-.637 2.104-.788 4.027-2.305 5.749-.538.217-.776.24-1.326.088z"/><path fill="#AF7E67" d="M61.155 32.221c-.407-1.099-.747-1.858-1.126-2.929.123-.87.287-1.428.692-2.151 1.163-.922 2.102-.727 3.35.004 1.018.953 1.489 1.799 1.494 3.2-.551 1.507-1.48 2.22-2.876 2.884-.804-.038-1.184-.28-1.534-1.008z"/><path fill="#B16B62" d="M83.435 109.039c-.591.01-.757.046-1.168.015-1.553-1.409-2.897-2.404-4.711-.237-.227.677-.283 1.08-.447 1.768-2.014-.676-.575-2.462-1.117-4.148-.109-.647-.207-.906-.071-1.512.697-.676 1.203-.913 2.171-1.13 2.41-.103 4.456-.38 6.22 1.638.074 1.497.504 2.694-.877 3.606z"/><path fill="#F8EFEC" d="M88.405 7.358c.442-.007.198.166.132.303-3.025 2.07-6.07 1.737-9.29.15 2.81-.368 5.764-.407 9.158-.453z"/><path fill="#97634E" d="M114.27 71.306c-.982-.273-1.772-.744-2.902-1.278-1.305-.54-2.428-.64-3.57-1.522-.782-.673-1.129-1.247-1.365-2.257.055-1.073.39-1.666 1.27-2.272 1.473.415 1.335 2.335 3.152 2.627.549.828 1.16.9 1.994 1.196.574.235.826.409 1.095.897.2.482.315.746.407 1.441.023.611.067.79-.08 1.168z"/><path fill="#9F9B97" d="M72.294 94.274c1.648 1.898-.449 4.832 1.77 7.338.056.705-.17 1.034-.68 1.524-.394.312-.563.423-1.016.635-2.478-2.975-1.023-6.045-.074-9.497z"/><path fill="#805948" d="M110.983 39.588c-1.93-.422-2.024-2.097-2.019-4.188-1.15-1.11-1.98-2.04-1.853-3.9.164-.623.27-.86.667-1.357 2.538 2.435 3.359 5.585 3.205 9.445z"/><path fill="#7F5E4E" d="M113.386 79.737c-.02-2.392.298-4.896.645-7.84 4.453 2.47.386 5.03-.645 7.84z"/><path fill="#7A4A37" d="M107.954 63.567c-.196.832-.466 1.384-.84 2.225-.772.915-1.542.956-2.7.46-2.43-2.696-.488-3.057 1.74-3.617.836.12 1.281.386 1.8.932z"/><path fill="#A17B6C" d="M56.194 41.492c.065-.436.39-.43.551-.45 1.515 1.142 2.135 2.557 1.416 4.658-.506 1.496-.75 2.682-1.075 4.224-2.244-2.232-.461-5.232-.892-8.432z"/><path fill="#978A83" d="M57.598 66.107c.42.476.48.88.626 1.58-.79 1.422-1.777.341-3.008.43-1.121-.724-2.718-1.492-1.865-2.588 1.152-1.48 2.586.136 4.247.578z"/><path fill="#B4846D" d="M106.43 26.824c.355.236.444.707.509.938.709.956.516 1.829.325 3.066-2.676 1.417-4.81 1.783-4.35-2.465.96-1.331 1.88-1.938 3.516-1.54z"/><path fill="#856251" d="M57.048 51.364c2.564.024 1.971 2.466 2.895 4.305.046 1.127.048 1.897.04 3.054-1.104-2.024-2.72-4.225-2.935-7.359z"/><path fill="#E3E7E8" d="M72.225 104.135c-.142-.263.147-.556.188-.758 1.667-1.545 3.58-.572 5.734-.83 1.432.554 1.127 1.217.253 2.117-.774.248-1.21.283-1.975.339-.734.4-1.21.537-2.065.197-.87-.425-1.431-.614-2.135-1.065z"/><path fill="#AFA9A1" d="M98.894 13.29c.45-.79.77-1.28 1.11-2.073 1.974-.568 2.62 1.133 3.86 2.46.354.77.27 1.157-.499 1.42a4.79 4.79 0 0 0-1.175.092c-.941.28-1.559.106-2.44-.348-.602-.476-.842-.832-.856-1.551z"/><path fill="#B5B0AB" d="M65.145 14.86a3.807 3.807 0 0 0-.895.02c-.825.685-1.314.26-1.908-.48 1.37-1.213 2.156-3.03 4.358-3.36.278.772.21 1.464.125 2.505-.275.952-.772 1.23-1.68 1.316z"/><path fill="#A17B6C" d="M92.638 104.608c.325.416.345.62.386 1.13-.346 1.714-.712 3.122-1.107 4.905-.175.484-.32.595-.686.541-.83-1.875 1.155-4.767-2.855-5.175-.485-.291-.582-.518-.483-1.06.607-.601 1.057-.804 1.91-.989 1.131-.071 1.855.075 2.835.648z"/><path fill="#7B5847" d="M106.45 61.547c-.082-1.235.24-2.495.584-4.145.54-1.402.152-2.66 1.093-3.89.374-.427.55-.573 1.35-.572.168 3.2-.44 6.194-3.027 8.607z"/><path fill="#C9CBCA" d="M74.616 8.942c-.274 1.086-.386 2.596-2.284 3.015-.924.016-1.456-.174-2.095-.791-.186-.222-.226-.614-.25-.81 1.016-1.99 2.282-2.97 4.63-1.414z"/><path fill="#E3E7E8" d="M103.053 15.4c.25-.518.506-.729.846-1.194 1.564.398 2.384 1.551 2.794 3.337-.184.717-.483.906-1.163.762-1.344-.63-2.206-1.316-2.477-2.906zM62.102 14.36c.583-.053 1.032.161 1.716.463.151 1.341-.335 2.362-1.774 3.168-.68.414-1.08.513-1.74.182-.22-.239-.287-.167-.263-.21-.111-.181-.248-.32-.18-.669.272-.366.342-.522.459-.93.092-.455.138-.656.485-.928.59-.317.877-.564 1.297-1.077z"/><path fill="#7D5D4D" d="M64.957 85.324c2.245-.31 4.713-.32 7.637-.307.542.214.628.405.502.83-2.81.568-5.415 1.054-8.139-.523z"/><path fill="#805948" d="M101.33 27.263c.428-1.21 1.137-2.17 2.104-3.291.483-.3.708-.44 1.185-.272.252.308.389.758.436.988-.023.98-.25 1.673-.998 2.511-.998.611-1.717.604-2.727.064z"/><path fill="#9F9B97" d="M72.958 86.455c-.044-.548-.013-.721.055-1.155.52-.56 1.002-.858 1.765-1.213.484 1.652-.346 3.085-1.229 4.79-.35-.539-.433-1.293-.591-2.422z"/><path fill="#856251" d="M64.24 27.645c-1.043.03-1.84-.283-2.956-.632-.012-.532.297-1.027.73-1.794.51-.623.962-.806 1.846-.727.364.095.41.317.304.36.345.79.588 1.576.077 2.793z"/><path fill="#9F9B97" d="M105.22 18.525c.364-.446.666-.55 1.2-.673.31 1.14 1.28 2.514-.964 3.2-.345-.673-.317-1.417-.236-2.527z"/><path fill="#9E9690" d="M60.082 18.28c.369-.332.735-.317 1.372-.221.404 1.088.537 2.096.639 3.484-1.382-.303-1.476-1.743-2.011-3.263z"/><path fill="#8D6E5E" d="M103.779 27.259c.38-.817.594-1.398 1.065-2.16.855.335 1.451.852 1.995 1.665-.802.53-1.55.764-2.582 1.092-.404-.057-.525-.209-.478-.597z"/><path fill="#AFA9A1" d="M111.158 47.217c-.248-1.958-.243-3.726-.194-5.935 1.99 1.031.483 3.137.964 5.28-.208.555-.362.7-.77.655z"/><path fill="#7F5E4E" d="M103.342 86.013c-.875-.1-1.403-.221-2.125-.538.305-1.075 1.104-1.182 2.367-.832.84.242 1.31.277 2.13.356-.136 1.125-1.125.947-2.372 1.014z"/><path fill="#856251" d="M110.86 47.81c.226 1.28.182 2.337.08 3.789-.307.489-.558.585-1.111.414-.848-1.29-.873-2.323-.13-3.698.226-.333.281-.308.31-.301.213-.137.396-.28.85-.204z"/><path fill="#9E9690" d="M64.145 24.327c-.378.381-.836.502-1.65.622-.36-.488-.363-.974-.211-1.792 1.003-.32 1.463.203 1.861 1.17z"/><path fill="#8D6E5E" d="M107.293 31.234c-.244-.935-.276-1.703-.3-2.856.7-.228.945.265 1.03 1.207.03.51.016.724-.019 1.257-.18.4-.34.479-.711.392zM104.984 23.759c-.311.23-.51.211-1 .123.016-.583.324-1.097.906-1.737 1.6.431.484.879.094 1.614z"/><path fill="#9F9B97" d="M74.094 105.286c.412-.347.868-.372 1.663-.33.311.238.283.408.24.836-.63.11-1.245-.036-1.903-.506z"/><path fill="#805948" d="M111.353 47.935c-.405.092-.587.087-1.041.084-.218-.316-.067-.579.386-.89.207-.102.692-.118.934-.137.341.338.242.627-.279.943z"/><path fill="#7F5E4E" d="M108.331 83.047c.196-.324.72-.674 1.585-1.021-.193.333-.724.664-1.585 1.02zM112.964 67.676c-.447.106-1.034-.072-1.778-.525.441-.102 1.04.07 1.778.525z"/><path fill="#B16B62" d="M77.33 112.205c.232.041.362.381.295.809-.263-.112-.33-.312-.295-.81zM90.997 111.264c.014-.244.454-.252.673-.25.11.314.003.626-.376.96-.271.02-.31-.467-.297-.71z"/><path fill="#9E9690" d="M59.78 17.079c.283.006.435.423.36.633-.623.167-1.262.186-.36-.633z"/><path fill="#7B5847" d="M109.737 52.329c.316-.268.483-.283.898-.317.341.351.23.646-.31.97-.226.104-.275.062-.299.041-.162-.16-.3-.3-.289-.694z"/><path fill="#7D5D4D" d="M62.009 83.286c.226-.05.53.179.906.696-.229.053-.529-.182-.906-.696z"/><path fill="#9E9690" d="M60.829 15.244c.369.45.265.694-.248.861-.153-.324-.092-.653.248-.86z"/><path fill="#7F5E4E" d="M114.534 70.373c-.272-.076-.34-.348-.456-1.04.565-.21.857.18.456 1.04zM106.278 84.999c-.082-.225.097-.521.532-.898.08.222-.095.524-.532.898zM107.283 83.994c-.08-.222.102-.515.537-.894.077.218-.1.52-.537.894z"/><path fill="#BD5652" d="M92.718 91.903c.292.63.29 1.074.296 1.85.01.333-.108.729-.16.928-.063 1.268-.705 1.784-1.987 2.047-3.313.425-4.103-2.274-5.54-3.855-2.758-3.035-5.234-6.325-8.066-9.742-.237-.689-.233-1.145-.258-1.941-.134-.558-.24-.776-.201-1.329.754-1.204 1.615-1.58 3.01-1.558.806.25 1.184.534 1.59 1.262.607 5.585 6.386 11.843 11.316 12.338z"/><path fill="#C3CFD5" d="M79.321 103.511c-2.208-.371-4.143-.404-6.473-.386-.547-.854.04-1.066 1.087-1.177 5.286-.254 10.219 1.014 15.573.116.846.465.993.993.569 1.939-3.724 1.121-7.128.993-10.756-.492z"/><path fill="#E3E7E8" d="M89.723 104.055c.238-.646.232-1.026.209-1.689.51-.31 1.039-.335 1.968-.368 1.095.588 1.187 1.366 1.06 2.514-.761.352-1.505.396-2.62.388-.534-.227-.698-.403-.617-.845zM90.87 96.926c.244-.715.825-1.248 1.67-1.913 1.82.871 1.974 1.91.027 3.105-.663-.262-1.011-.636-1.696-1.192z"/><path fill="#E45355" d="M81.735 10.929c1.167-.222 2.025-.246 3.146-.292 1.386-.247 2.36.19 3.634.935 2.428 3.412 2.188 6.415-.548 9.557-1.685 1.17-3.095 1.937-5.018.855-5.795-2.836-6.277-6.679-1.214-11.055z"/><path fill="#E3EEF6" d="M82.244 21.74c1.684-.348 2.867-.596 4.355-.932.716.302.929.779.84 1.734-1.026 1.54-2.351 1.64-4.047 1.77-.86.039-1.345.053-2.178.096-.802.097-1.256.173-2.036.357a50.68 50.68 0 0 1-2.002.52c-1.712.346-3.073.834-4.791.151-.629-2.896-3.418-3.437-4.786-5.254-1.085-1.442-2.735-2.493-2.694-4.978.413-.667.881-.953 1.627-1.275 2.75 7.323 8.243 9.004 15.712 7.81z"/><path fill="#E3E7E8" d="M70.063 11.242c.53-.11 1.072.079 1.778.509-.776 1.352-1.39 1.078-1.778-.509zM68.555 12.451c.037.062-.037-.061 0 0z"/><path fill="#6C3F2D" d="M61.902 80.758c-3.902.248-5.412-2.403-5.794-5.694-.208-1.788-1.11-4.575 2.718-4.335.749.629.82 1.184.985 1.998-.3 2.988 1.377 5.19 2.091 8.03z"/><path fill="#F8CEB7" d="M74.276 80.513c-2.323 2.86-4.116 1.537-5.639-.398-1.067-1.356-2.422-2.59-2.636-5.05.63-1.025 1.225-1.287 2.196-1.47 1.447.158 2.35.798 3.566 1.533.798.573 1.234 1.054 1.806 1.843.395.634.582 1.016.82 1.717.101.723.09 1.141-.113 1.825z"/><path fill="#A38679" d="M60.863 68.256c.408-.927 1.04-1.469 1.868-1.196 1.098.363.396 1.261.332 2.222.91 2.024 4.511 1.83 3.27 5.426-.197.364-.438.428-.53.343-1.843-.404-4.43 1.118-4.842-2.607-.385-.8-.501-1.276-.164-2.124.22-.316.202-.32.207-.312.13-.158.254-.324.183-.73-.217-.417-.237-.592-.324-1.022z"/><path fill="#9F9B97" d="M74.348 80.663c-.295-.266-.356-.648-.421-1.324-.127-.541-.25-.79-.404-1.453-.03-2.519 1-3.503 3.474-3.083 1.25 1.537 1.213 2.887.339 4.642-.22.55-.245.721-.315 1.149-.921.77-1.27-2.879-2.673.07z"/><path fill="#815543" d="M60.763 70.105c.252.358.25.816.205 1.617-.349.416-.593.581-.881 1.036-.407-.268-.71-.734-1.017-1.496.477-.55.958-.803 1.693-1.157z"/><path fill="#F7F9F9" d="M87.114 23.4c-.116-.843-.136-1.368-.183-2.286 2.426-2.724 3.018-5.38 1.21-8.773-.603-2.494 1.753-1.736 2.628-2.993.688-.213 1.115-.217 1.857-.162.879.418.827 1.01 1.12 1.719 2.021-.135 3.447.522 4.947 1.964.447.425.64.67 1.113.973 1.722 5.742-3.099 6.562-6.542 8.888-.575.494-.866.741-1.25 1.264-.418.58-.802.785-1.562.949-.775.046-1.215-.005-1.963-.215-.7-.342-1.021-.642-1.375-1.329z"/><path fill="#633A24" d="M89.719 24.401c.702-.196 1.13-.182 1.882-.15 1.48.541 2.639 1.065 4.08 1.745 1.587 1.78.637 3.501.418 5.552-.187.597-.285.827-.606 1.359-.85.758-1.554.906-2.655.745-.533-.216-.726-.34-1.14-.717-.662-.975-.865-1.824-1.67-2.667-.97-.652-1.686-1.127-2.377-2.116-.53-1.996.506-2.844 2.068-3.75z"/><path fill="#7A4A37" d="M106.708 31.088c.374-.02.827.005 1.051.04.468 1.112.71 2.19 1.074 3.587-1.257.305-2.635.291-4.68.172-.97-.321-1.261-.551-1.766-.971a9.116 9.116 0 0 1-.843-.792c-.557-.7-.88-1.207-1.397-1.964-.607-1.03-.894-1.825-.384-2.96.358-.545.567-.79 1.066-1.08.945-.105 1.67-.106 2.756-.102.361.004.38.468.384.7-1.643 3.105.026 3.498 2.74 3.37z"/><path fill="#E3EEF6" d="M93.354 22.985c1.035-3.536 6.332-3.806 6.618-8.667.503-.025.967.31 1.687.785-.439 4.874-3.605 6.995-8.305 7.882z"/><path fill="#805948" d="M99.67 27.9c.562.807.812 1.555 1.22 2.558-.03.771-.354 1.177-1.167 1.657-1.618.667-2.888.999-4.485.053-.468-2.034.038-3.672.691-5.651 1.167.199 2.297.76 3.74 1.382z"/><path fill="#5E3520" d="M103.972 84.497c-.754.44-1.49.526-2.587.698-.729-.513-1.096-1.111-1.552-2.056-1.295-1.718-1.068-3.7-2.305-5.422-1.481-2.458-2.984-4.476-5.028-6.474-.631-.425-.994-.659-1.643-1.04-.466-.261-.65-.37-1.099-.663-1.098-.896-1.803-1.697-2.047-3.121.153-.488.283-.656.683-.99a5.698 5.698 0 0 1 1.15-.463c1.077-.251 1.86-.41 2.886-.797 1.006-.386 1.728-.687 2.617-1.322.415-.296.583-.414 1.014-.704.99-.626 1.719-1.082 2.791-1.61.772-.199 1.225-.176 1.972.109.384.396.47.612.324 1.09-2.323 3.823-.474 6.844 1.003 9.979 1.262 2.678 2.694 1.412 4.516.344 1.2.092 1.735.624 2.177 1.697.402 2.532-.22 4.413-2.015 5.98-1.332 1.164-2.88 2.312-2.857 4.765z"/><path fill="#784835" d="M109.131 73.703c-.72-.185-1.306-.676-2.019-1.43-.132-.915-.139-1.565-.147-2.541-.068-.8.094-1.186.779-1.589 1.449-.102 2.347.336 3.139 1.544-.443 1.422-1.031 2.566-1.752 4.016z"/><path fill="#F1B7A2" d="M106.442 55.702c-.604.826-.968 1.29-1.562 1.94-.502.126-.773.066-1.29-.329-.894-1.584-1.02-2.966-1.238-4.741 2.046-3.539 3.5-2.56 4.737.667-.009 1.016-.157 1.572-.647 2.463z"/><path fill="#AF7E67" d="M107.94 67.798c-.092.571-.312.892-.754 1.41-1.596-.244-3.448-.15-3.143-2.813.77-.368 1.5-.36 2.598-.332.635.507.902.996 1.298 1.735z"/><path fill="#F1B7A2" d="M104.466 57.571c-.281.798-.746 1.34-1.355 2.117-.426.61-.804.82-1.591.797-1.284-.71-1.18-1.583-.74-2.793.319-.462.471-.628.91-.972.722-.301 1.16-.323 1.884-.045.423.333.566.487.892.896z"/><path fill="#7A4A37" d="M106.387 56.178c-.126-.607-.067-1.1.157-1.93.49-1.005 1.041-1.357 2.087-1.379.337 1.493-.33 2.63-1.32 3.942-.354-.082-.514-.321-.924-.633zM100.818 60.183c.594-.204 1.038-.214 1.815-.242.294.937.14 1.815-1.37 2.034-.345-.181-.345-.382-.337-.883.007-.301-.26-.715-.108-.909z"/><path fill="#97634E" d="M68.812 28.361c.398-1.536 1.536-1.824 2.813-2.343 5.903-.365 10.845 1.262 15.416 5.069.32.562.416.805.54 1.438-.606 2.671-2.314 3.645-4.835 4.033-1.084-.331-1.536-.888-2.08-1.813-.949-2.561-3.008-2.407-5.108-2.78-1.566-.356-1.988.343-2.182 1.764-2.26 3.397-4.951 1.858-7.87 1-.726-.527-.976-.949-1.066-1.827.188-1.12.824-1.502 1.635-2.125 1.015-.513 2.385.821 2.508-1.295-.012-.499.006-.7.23-1.121z"/><path fill="#805645" d="M87.353 32.006c-4.425-3.66-10.112-3.427-15.01-6.007-.39-.006-.273-.372-.264-.564 1.43-.562 2.848-.931 4.632-1.26 3.455 2.355 7.548 1.533 11.04 3.602 1.007.551 1.764.876 2.831 1.226.57 2.42-1.347 2.508-3.229 3.003z"/><path fill="#804E3B" d="M67.26 30.9c-.799.355-1.245.648-1.932 1.06-.396-.064-.553-.248-.53-.745-.062-1.095-.304-1.876-.676-2.942-.119-1.059-.109-1.832-.08-2.992 1.449.644 2.88 1.676 4.644 2.784.332.075.243.267.252.373.159 1.216-.457 1.881-1.678 2.462z"/><path fill="#F7F9F9" d="M89.526 103.842c.447.124.452.3.451.742-.459.335-.91.405-1.692.57-.927.368-1.621.297-2.515.72-.314.092-.258.122-.25.091-.252.159-.512.348-1.165.258-1.91-1.65-3.823-.842-5.907-1.28-.14-.493.106-.92.476-1.56 3.385 1.212 6.8.47 10.602.459z"/><path d="M83.966 106.306c.256-.392.517-.422 1.17-.412.313.468.234.895.188 1.65.037.537.042.745.068 1.264a179.85 179.85 0 0 1-.246 5.785c-1.537.243-.935-1.62-2.254-2.382-.148-1.025-.106-1.756.026-2.842 1.468-.704.992-1.813 1.048-3.063z"/><path fill="#B16B62" d="M85.878 106.004c-.042-.795.666-.83 1.728-.805.349.05.366.398.374.572-.555.206-1.118.238-2.102.233zM85.59 109.001c-.264-.086-.353-.29-.337-.81.24.019.375.355.336.81z"/><path fill="#815543" d="M60.997 69.281c.182-.09.381.056.547.233.022.023-.126.205-.365.408-.17.094-.176-.396-.182-.641z"/><path fill="#643722" d="M109.22 52.953c-.85.3-1.44.587-2.27.916-1.102-1.157-.82-4.783-3.815-1.259-.313.446-.553.544-1.134.455-1.182-1.282-1.238-2.558-1.158-4.225.326-2.547 2.01-4.073 2.759-6.405.152-1.033.307-1.711.95-2.924 2.932 1.883 2.722 5.62 5.02 8.399.339 1.162.324 2.252.312 3.754.003.411.04.877.08 1.107-.135.21-.309.189-.743.182z"/><path fill="#804E3B" d="M103.996 35.001c.3 1.094.603 2.188.94 3.62.034.34.041.36.034.356-1.68 1.757-3.906 2.258-6.54 2.707-1.46-.159-2.239-.739-2.846-2.052-.052-2.11 1.46-2.697 2.801-3.863 1.333-.836 2.47-1.192 4.017-1.408.588.056.817.123 1.321.419.275.229.278.22.273.221z"/><path fill="#EEB59D" d="M77.765 109.063c-.702-1.269-1.066-2.651.854-2.932 1.638-.24 3.357-.375 3.43 2.462-1.32.411-2.611.427-4.284.47z"/><path fill="#633A24" d="M72.14 75.653c-1.7.151-2.592-.754-3.757-1.825-1.663-.91-2.326-2.32-3.298-3.786 1.398-4.382-4.045-6.315-2.857-10.866.425-.712.625-.79 1.144-.902.53-.008.741.018 1.252.148 1.425.63 2.09 1.796 3.565 2.339 1.486.477 2.576 1.07 3.903 1.876.449.245.626.345 1.07.59.813.415 1.37.658 2.255.914 1.32.409 2.341.727 3.51 1.507.506.917.31 1.538-.257 2.4-.705.725-1.268 1.1-2.05 1.737-2.11 1.653-2.843 3.892-4.48 5.868z"/><path fill="#D5AA94" d="M64.725 69.741c1.59.853 2.901 1.67 3.359 3.604-.429.734-.882 1.145-1.641 1.641.147-2.397-2.49-2.954-3.356-5.047.373-.31.832-.241 1.638-.198z"/><path fill="#F1B7A2" d="M61.399 55.946c-.206-.743-.245-1.481-.182-2.575.596-.875 1.2-1.116 2.242-.969.507.24.687.379 1.032.819.284.744.336 1.194.227 1.984-.195.525-.31.72-.708 1.1-.724.297-1.163.292-1.86-.056a1.443 1.443 0 0 0-.751-.303z"/><path fill="#EEB59D" d="M61.884 56.3c.492-.24.98-.222 1.83-.148.929.661 1.061 1.376.686 2.485-.21.319-.699.31-.938.258-.588-.173-.936-.297-1.487-.615-.268-.364-.332-.54-.264-.96.145-.418.157-.59.173-1.02z"/><path fill="#6B3C28" d="M61.643 57.229c.2-.156.426.14.486.315.129.404.198.633.07 1.16C62 59.001 62 59 62 59c-.672-.37-1.014-.856-.358-1.772z"/><path fill="#F4F6F6" d="M93.134 91.871c-2.326 2.172-4.119 2.302-6.052-.406-2.089-2.927-4.502-5.666-7.055-8.204-1.723-1.714-.604-2.06.92-2.914.344-.444.498-.6.956-.873 2.096-.493 3.404-1.44 4.13-3.552.26-.514.385-.712.775-1.149.931-.58 1.639-.671 2.731-.511 2.953 1.582 4.911 3.624 5.913 6.868-.048 1.97-1.048 3.17-2.023 4.706-.363.77-.532 1.29-.148 2.095.24.416.339.583.561 1.021.234.656.323 1.047.251 1.711-.374.51-.605.75-.959 1.208z"/><path fill="#F4C8B2" d="M92.015 86.291c.856-1.553 1.732-2.776 2.877-4.175.538-1.65-.239-3.295 1.236-4.843.447-.322.65-.415 1.175-.417 2.843.998 2.854 3.02 2.51 5.553-.332.635-.595.885-1.01 1.368-.518 1.436.097 2.951-1.536 4.051-.702.538-1.16.855-1.905 1.205-.72.375-1.206.499-2.082.2-.335-.204-.278-.227-.294-.2-.537-.708-.813-1.534-.971-2.742z"/><path fill="#D5AA94" d="M97.398 87.98c.027-1.126.43-2.32 1.044-3.742.185 1.133 1.642 2.828-1.044 3.743zM93.061 89.273c.358-.262.832-.28 1.66-.253.157.59-.038 1.136-.502 1.796-.526-.356-.784-.827-1.158-1.543z"/><path fill="#70412E" d="M64.695 30.994c.297.104.31.3.359.79.02.719.007 1.142-.002 1.884.066.913.231 1.486.499 2.346 1.831 2.504 5.33 1.826 6.861 4.756-2.561 4.139-5.465 1.613-7.887.35-2.133-1.113-1.938.1-2.33 1.64-.44 1.007-.891 1.568-1.85 2.116-.864.391-1.38.66-2.172 1.032-.58-1.317-.886-2.737-1.229-4.521 1.632-1.745.946-4.022 2.02-6.012.757-1.145 1.657-1.69 2.78-2.445 1.08-.702 1.874-1.273 2.951-1.936z"/><path fill="#5E3520" d="M60.008 45.368c.25-.864.512-1.358.883-2.11 3.768-1.427 3.204 2.28 4.794 4.033.455 1.382.499 2.413.16 3.82-.275.574-.423.783-.916 1.154-1.103.037-1.787-.264-2.666-.987.383-2.517-2.386-3.48-2.255-5.91z"/><path fill="#EEB59D" d="M61.916 51.267c.71-.15 1.332-.044 2.125.34.229.5.288.722.086 1.172-.898.226-1.535.226-2.49.23-.147-.49.023-.987.28-1.742z"/><path fill="#E3E7E8" d="M90.695 9.052c.398 1.931-1.285 1.81-2.51 2.687-.953-.124-1.703-.5-2.747-1 .93-.59 2.154-1.055 3.488-1.86.552-.197.992-.056 1.769.173zM94.008 10.754c-1.666.89-.76-.515-1.057-1.249.734-.206 1.035.253 1.057 1.25z"/><path fill="#804E3B" d="M61.923 32.602c.053 1.671-.7 2.414-2.55 2.397-.382-1.196.132-2.119 1.421-2.951.575-.045.817.13 1.129.554z"/><path fill="#F3F6F8" d="M77.416 79.72c-.308-1.241-.34-2.585-.36-4.332.028-.81.13-1.196.456-1.829a8.985 8.985 0 0 1 1.113-1.502c.978-.798 1.825-.91 3.047-.63.93.467 1.387.963 1.816 1.915.188 1.035.047 1.707-.333 2.68-.258.513-.376.71-.717 1.17-.73.738-1.352 1.025-2.273 1.469-1.024.424-1.748.69-2.749 1.059z"/><path fill="#AFA9A1" d="M80.145 78.951c-.142-1.017.063-1.851 1.468-2.09 1.062.646 1.163 1.522.637 2.862-.267.38-.689.33-.9.333-.45-.322-.689-.648-1.205-1.105z"/><path fill="#F8EFEC" d="M83.951 13.112c-.15 1.79 4.366 1.008 2.095 3.877-2.96 3.74-3.833-.653-6.29-.698 1.666-1.407 2.75-2.322 4.195-3.18z"/><path fill="#70412E" d="M88.043 27.685c-3.876.183-7.794.312-10.787-3.253.247-.28.676-.343 1.43-.419.443-.149.561-.287.949-.388.748-.07 1.227-.177 2.073-.245 2.157.246 3.959.032 6.096.368.767.174 1.188.18 1.899.314-.346 1.188-.981 2.247-1.66 3.623z"/><path fill="#805645" d="M87.973 23.76c-1.637.129-3.451.101-5.581-.134 1.055-.282 2.426-.357 4.211-.488.634.178.893.352 1.37.622zM79.735 23.546c.027.301-.159.415-.556.457-.08-.286.104-.476.556-.457z"/><path fill="#D2DCE1" d="M78.037 73.94c-.135.57-.335.756-.776.967-1.905.002-2.793.97-3.274 2.847-.206.423-.379.492-.772.389-.517-.703-.814-1.234-1.241-2.041-.046-3.034 1.393-5.105 3.587-7.075.716-.368 1.147-.486 1.949-.443.511.198.684.347.991.81.158.54.182.765.161 1.326-.39 1.153-.728 1.973-.625 3.22z"/><path fill="#EEB59D" d="M73.1 78.19c-.106-.219.379-.18.617-.13.238.049.285.519.245.752-.335.084-.573-.129-.862-.623z"/><path fill="#82513E" d="M99.197 35.756c-.14 2.093-1.759 2.096-2.993 2.978-.868.71-1.499.467-2.413-.034-1.495-1.294-2.548-2.484-2.514-4.59.17-.537.281-.736.704-1.075.898-.123 1.483-.107 2.36-.112 1.655.335 3.006.722 4.525 1.637.362.453.448.676.33 1.196z"/><path fill="#B4846D" d="M99.26 34.66c-1.755.256-3.431.835-4.466-1.404-.092-.516-.024-.678.099-1.098 1.265-.068 2.412-.204 3.771-1.058.667.228.934.646 1.192 1.479.038.883-.09 1.365-.596 2.081z"/><path fill="#6B3C28" d="M87.026 32.197c1.154-1.022 2.345-1.836 3.701-2.91 1.167.23 1.266 1.137 1.244 2.445-.733.969-1.49 1.534-2.785 1.855-.832.088-1.296.005-1.95-.478-.214-.286-.172-.705-.21-.912z"/><path fill="#97634E" d="M89.152 32.915c.59-.56 1.387-.726 2.497-.863.314.03.43.457.537.65.108.194-.11.317-.226.364-.9.674-1.735.66-2.808-.151zM98.99 35.206c.015-.664.029-1.047.055-1.718.629-1.086 1.437-1.213 2.724-.72.369.235.787.23.997.23.583.383.74.84.475 1.687-1.319.651-2.43.987-3.894 1.345-.355-.165-.357-.353-.358-.824z"/><path fill="#BE8D76" d="M102.072 32.688c-.706.365-1.477.415-2.631.49-.402-.476-.42-.974-.445-1.846.449-.44.905-.506 1.707-.595.665.53.984 1.084 1.37 1.951z"/><path fill="#6F402D" d="M103.275 35c-.255-.444-.268-.889-.29-1.667.318.135.646.605.993 1.375.02.3-.462.291-.703.292z"/><path fill="#FAD6BF" d="M88.633 32.62c1.03.078 1.748.254 2.839.462.818 1.439 1.264 2.846 1.938 4.468 1.314 1.323 1.99 2.584 1.523 4.48-.464.48-.75.62-1.042.745-.698.3-1.612.036-2.124.817.513-.588 1.217-.528 2.237-.553 1.35.03 2.177.462 3.131 1.41.415.732.514 1.194.408 2.013-.482.922-1.052 1.21-2.026 1.323-.82-.063-1.303-.372-2.067-.125-.597.482-.952.857-1.389 1.522a6.85 6.85 0 0 0-.442 1.048c-.094 3.137 2.62 3.13 4.392 4.6-1.982 2.835 1.307 5.216.289 8.029-.18.29-.314.195-.241.231-.843.452-1.8.79-2.866 1.572-1.013.482-1.783.786-2.863 1.087-.493-.06-.674-.116-1.104-.037-.25.136-.722.277-.964.328-.423.221-.605.391-1.123.725-.578.23-.82.295-1.431.415-1.867.137-3.36.134-5.22-.123-.596-.191-.824-.298-1.326-.665-1.373-.533-2.47-.808-3.855-1.267-.734-.594-1.323-.626-2.105-.94-.238-.159-.206-.188-.215-.169-1.432-1.338-2.145-2.843-.846-4.667.812-1.14.903-2.376.766-4.016 4.32-4.375 4.327-4.6.025-7.776-1.824-1.864-1.182-3.13.744-4.366 1.35-.481 2.155-1.098 2.76-2.422 1.644-1.966 2.528-4.249 5.24-4.886 2.326.056 3.264-1.866 5.137-2.795.642-.3 1.075-.336 1.82-.469z"/><path fill="#F1B7A2" d="M96.43 63.096c-.46-1.227-.542-2.429-1.808-3.33-2.96-2.104-1.006-3.321 1.118-4.772.137-.535.12-.755.369-1.17 1.556-.436 2.855-.598 4.488-.657.532.11.739.188 1.233.431.621 1.03.281 1.934.302 3.115-.146.307-.127.285-.116.276-1.533.657-1.66 2.364-2.804 3.712-.983.923-1.728 1.633-2.783 2.395z"/><path fill="#D9DEE0" d="M97.539 76.635c.087.312.025.276.002.304-2.453 1.419-4.485 1.142-6.213-1.693-.72-.926-.859-1.643-.743-2.775.156-.83.296-1.287.646-2.042.337-.472.507-.633.965-.995 2.637 1.678 3.804 4.383 5.343 7.2z"/><path fill="#E3EEF6" d="M86.824 66.198c.278-.181.737-.135.967-.12.827.754 1.423 1.494 2.197 2.469.287.418.396.603.485 1.11-.19.725-.428 1.084-.97 1.62-.61.46-.988.677-1.682 1.005-.515.195-.728.256-1.274.335-1.036-.075-1.584-.408-2.046-1.345-.159-1.47.218-2.517.798-3.848.48-.607.84-.862 1.525-1.226z"/><path fill="#E1836F" d="M99.298 60.86c.002-1.516.343-3.076 2.391-3.835-.011.74-.36 1.526-.715 2.638-.006.326-.068.727-.054.927-.424.207-.861.212-1.622.27z"/><path fill="#F1B7A2" d="M93.27 64.86c-.116-1.475.835-1.907 2.51-1.781-.164 1.112-1.224 1.388-2.51 1.78z"/><path fill="#D9DEE0" d="M90.789 69.136c.528-.25.885-.243 1.468-.068.131.325.035.483-.787.786-.768-.056-.81-.258-.681-.718z"/><path fill="#F1B7A2" d="M89.245 65.905c.004-.18.278-.304.662-.293-.057.206-.226.279-.662.293z"/><path fill="#6B3C28" d="M102.455 79.529c-.03-.052.03.051 0 0z"/><path fill="#ACB2B5" d="M90.77 68.79c.201.284.212.48.198.968-.18.371-.335.45-.736.44-.24-.313-.236-.538-.148-1.09.082-.328.495-.408.686-.319z"/><path fill="#E1836F" d="M102.299 57.007c-.618-.787-1.275-1.556-.466-2.709-.023-.462-.118-.666-.001-1.131.38-.248.55-.233.975-.214 1.438.828 1.186 2.044 1.089 3.554-.456.394-.87.44-1.597.5z"/><path fill="#82513E" d="M81.974 35.705c-1.46 1.899-2.943 3.49-4.746 5.183-.649.447-1.053.648-1.87.702-.8-.162-1.23-.346-1.928-.78-2.45-3.059-6.41-2.179-9.155-4.59-.073-.795.104-1.349.532-2.068 2.753-1.145 5.415 2.401 8.042-.731.331-.442.474-.583.92-.754.7.055 1.085.178 1.734.473.454.232.631.332 1.072.58 1.033.647 1.791.442 2.857.012.527-.112.745-.125 1.239.039.61.66.945 1.143 1.303 1.934z"/><path fill="#B4846D" d="M76.309 34.37c-.384-.207-.87-.274-1.113-.312-.51-.437-.68-.876-.798-1.703.04-.582.113-.809.45-1.275 2.395.342 5.42-1.21 6.211 2.583-.112.284-.57.367-.8.407-1.29.566-2.368.966-3.95.3z"/><path fill="#BE8D76" d="M67.05 31.221c.373-.923.888-1.587 1.65-2.465 1.05.642 2.682 1.214 1.22 2.818-.97 1.065-1.86 1.149-2.87-.353zM74.876 30.598c.21.445.183.648.134 1.157-.16.489-.298.67-.725 1.036-.29.184-.773.23-1.01.28-1.07-.633-1.647-1.436-.868-2.462.595-.785 1.433-.637 2.47-.011z"/><path fill="#6F3F2B" d="M97.16 45.37a30.254 30.254 0 0 0-2.808-1.42c-.682-.414-.827-.829-.547-1.587 1.38-1.594-.189-2.673-.132-4.25.552-.029 1.138.29 2.026.742.791.723 1.28 1.315 2.035 2.03 2.32 1.596 4.673-.517 7.002.89.75 2.76-1.855 3.73-2.644 6.008-.455.6-.822.77-1.542.82-.502-.1-.695-.173-1.147-.414-1.112-.8-1.508-1.755-2.244-2.818z"/><path fill="#6F402D" d="M104.99 41.621c-2.26-.367-4.686 3.123-6.92-.256 2.004-1.025 4.079-1.695 6.523-2.378.38.743.39 1.5.397 2.634z"/><path fill="#DDA990" d="M99.825 48.282c.642-.311 1.067-.33 1.809-.262.335 1.419.352 2.752.39 4.485a8.106 8.106 0 0 1-.082 1.251c-.038.284-.48.253-.7.244-1.406-1.076-1.496-2.546-1.717-4.343.006-.602.045-.842.3-1.375z"/><path fill="#F1B7A2" d="M72.618 54.461c1.982 2.065 3.376 3.738.601 5.449-1.684 1.038-.417 2.27-.265 3.778-1.411-.364-2.848-1.075-4.635-1.824-1.183-.705-1.618-1.645-2.178-2.858-.236-.897-.338-1.508-.593-2.408a6.489 6.489 0 0 1-.229-1.26c.06-.765.223-1.169.732-1.743 1.107-.604 1.995-.639 3.23-.493 1.19.276 2.014.596 3.337 1.36z"/><path fill="#C9CBCA" d="M66.797 57.933a39.982 39.982 0 0 1 1.143 3.577c-2.908 2.105-1.913-1.626-3.515-2.297-.256-.947-.278-1.637-.324-2.666-.024-.34-.027-.417-.046-.451.11-.188.238-.341.657-.574.484-.03.678.021 1.072.297.2.225.22.19.208.203.474.447.482 1.082.805 1.91z"/><path fill="#E3EEF6" d="M78.804 66.38c.083-.247.573-.296.817-.33 1.965.893 3.21 2.106 2.635 4.623-1.532 1.195-2.629.518-3.99-.477-.271-.272-.252-.71-.246-.93-.189-.39-.383-.562-.32-1.026.512-.733.767-1.174 1.104-1.86z"/><path fill="#ACB2B5" d="M77.68 68.054c.31.076.344.257.362.716-.495.27-.973.264-1.805.197.153-.31.66-.558 1.444-.913z"/><path fill="#F1B7A2" d="M73.125 64.285c.403-.114.968.03 1.714.415-.397.108-.975-.025-1.714-.415z"/><path fill="#815543" d="M62.308 58.972c-.283-.185-.26-.4-.177-.933.335-.109.613.102.991.558-.101.278-.304.311-.814.375z"/><path fill="#97634E" d="M66.044 55.7c-.06.344-.466.56-.693.523-.74-.515-.82-1.176-1.145-2.084-.173-.278-.22-.713-.28-.923-.002-.397.056-.584.2-1.051.284-.29.484-.3.982-.288.499-.002.699-.026 1.106.17.354.602.39.995.167 1.66-.192.725-.234 1.187-.337 1.993z"/><path fill="#E1836F" d="M63.99 54.227c.37.19.698.744 1.08 1.63-.132.346-.318.361-.77.291-.294-.575-.324-1.065-.31-1.92z"/><path fill="#BC6D66" d="M90.738 73.866c2.377.819 2.81 4.389 6.355 3.138-1.433.923-.695 2.998-1.71 4.676-1.233-2.324-3.483-3.938-5.281-6.315-.308-.813-.17-1.232.636-1.5z"/><path fill="#B5B0AB" d="M82.17 80.367c-.19-1.095-.192-1.925-.219-3.172-.024-.416.032-.845.11-1.047 1.363-1.028 2.69-1.492 4.52-.44.229 3.195-1.463 4.583-4.41 4.659z"/><path fill="#B16B62" d="M91.119 73.673c-.307.466-.602.686-1.03 1.151-.867.219-1.6.193-2.698.204-1.026-.123-1.417-.574-1.69-1.484.16-.69.432-.983 1.036-1.383.224-.211.26-.175.243-.19.454-.39 1.04-.447 1.864-.692.468-.338.654-.583.986-1.003.156-.166.635-.2.874-.213.24-.013.263-.038.257-.03.562.39.5 1.039.79 1.862-.126.693-.373 1.113-.632 1.778z"/><path fill="#9E9690" d="M85.843 72.925c.53.67.766 1.15 1.092 1.886.09.254.08.712.037.937-1.374.232-2.706.239-4.435.222-.124-.493.15-.962.584-1.657.68-1.072 1.37-1.633 2.722-1.388z"/><path fill="#D5AA94" d="M91.77 86.155c1.138.362 1.272 1.26 1.242 2.556-1.198-.199-2.235-.806-1.242-2.556z"/><path fill="#6B3C28" d="M73.757 40.161c.508.012.786.206 1.187.625.637.872.779 1.586.261 2.661-1.45.981-4.28.25-2.439 3.367.108.47-.249.716-1.011.887-2.293-.262-4.113.703-6.35.599-2.322-1.201-1.855-3.968-4.058-5.235.058-1.656.463-3.248.904-4.978 2.744 2.126 5.44 4.38 9.51 3.184.603-.826 1.171-.91 1.996-1.11z"/><path fill="#784835" d="M73.722 39.792c-.2.512-.664.836-1.425 1.185-2.46-2.258-6.487-1.143-8.224-4.646 3.115.806 6.961.188 9.65 3.46z"/><path fill="#F1B7A2" d="M65.137 48.563c2.275-1.456 4.35-3.344 7.446-2.053 0 1.373-.682 1.942-1.634 2.69-.601.425-.94.664-1.502 1.11-.372.338-.519.476-.895.808-.737.538-1.294.75-2.195.816-.298-.028-.624-.096-.787-.066-.24-.958-.318-1.946-.433-3.305z"/><path fill="#ACB2B5" d="M86.368 72.993a31.11 31.11 0 0 1-2.788 1.05c-.68-.453-1.063-.95-1.39-2.042.18-.758.307-.92.681-1.269.652-.303 1.059-.308 1.702-.014.743.518 1.251.834 2.074 1.19.193.35.072.657-.279 1.085zM77.984 70.164c1.127.116 2.243.472 3.675 1.349.316.521.338.494.35.48-.87.122-1.75.258-2.79.69-1.422.7-1.58-.134-1.452-1.424.209-.374.206-.855.217-1.095z"/><path fill="#8D6E5E" d="M77.65 71.044c.497.444.669 1.048 1.125 1.794.154.498.021.852-.417 1.32-1.891-.593-1.35-1.801-.707-3.114z"/><path fill="#6B452F" d="M68.698 49.21c1.12-.847 2.125-1.478 3.618-2.183.486-.073.708-.088.777-.09 2.685-.243 4.35 1.084 4.383 3.55.03 2.156-.778 4.3-3.994 4.389-.355-.004-.348.043-.342.02-1.117-.562-2.332-1.011-2.533-2.494-.014-.104.055-.219.086-.329-.271.198-.394.47-.609 1.01-1.334.2-1.767-.522-2.016-1.776.013-.345.076-.706.036-.885.077-.488.25-.76.594-1.213z"/><path fill="#6F4A34" d="M100.027 47.992c.015-.003-.39.097-.413.305.885 2.976-.391 4.509-3.244 5.523-.32.194-.506.501-.49.68-4.323.914-6.175-.9-5.213-5.402.53.062.722.274.915.485.197.215.13.15-.418-.385-.33-1.269.603-1.573 1.49-2.27a4.594 4.594 0 0 1 1.113-.35c1.028.103 1.776.254 2.88.543 1.24-.157 2.043.144 3.104.665.263.186.261.21.276.206z"/><path fill="#DB9883" d="M84.97 70.62c-.52.307-.877.314-1.503.322-.463.145-.658.287-1.15.225-.299-.204-.305-.167-.287-.175.139-1.787-1.295-2.88-2.029-4.66 1.612-.328 3.36-.339 5.541-.33.575.188.715.356.73.828-.465 1.366-.803 2.429-1.303 3.79z"/><path fill="#DF6D62" d="M84.514 61.549c-1.639.195-2.857.002-4.01-1.42 1.864-.042 3.458-.832 4.886.582.037.036-.092.28-.184.395-.1.124-.246.21-.692.443z"/><path fill="#97634E" d="M93.676 42.06c.349.428.34.821.35 1.509-1.132.257-2.903 1.186-3.232-.243-.305-1.326 1.445-1.235 2.882-1.265z"/><path fill="#815543" d="M75.314 43.817c-.339-.763-.314-1.444-.268-2.465.431-.346.84-.352 1.556-.36-.338.87 1.24 2.681-1.288 2.825z"/><path fill="#DDA990" d="M99.99 47.654c-.888 1.787-1.718.663-2.779-.08-.234-.775-.26-1.234-.29-2.037 1.012.37 2.028 1.085 3.069 2.117z"/><path fill="#F1B7A2" d="M86.345 66.986c-.239-.036-.277-.22-.342-.684.16-.284.347-.288.817-.288.152.314-.034.588-.475.972z"/><path fill="#DDA990" d="M93.91 46.422c-.037.197-.211.286-.68.365-.016-.166.263-.32.68-.365z"/><path fill="#F6C4AC" d="M96.347 54.146c-.776-2.67 4.262-1.875 2.967-5.358 2.005.88 1.665 2.671 1.698 4.778-1.462.34-2.824 1.912-4.665.58z"/><path fill="#ACB2B5" d="M91.92 71.83c-.353-.171-.659-.68-.965-1.488 0-.3.453-.275.675-.235.26.488.298.937.29 1.724zM88.796 71.094c-.2.342-.717.602-1.533.863-.05-.722.525-.926 1.533-.863z"/><path fill="#97634E" d="M76.004 34.472c1.016-.346 2.111-.383 3.616-.391-.702 1.452-1.8 2.952-3.616.39zM74.094 33.2c-.017-.55.166-.798.673-1.055.22.352.22.787.204 1.548-.337.213-.59.014-.877-.494z"/><path fill="#F6C4AC" d="M67.786 50.986c.714.487 1.133.997 1.789 1.578.406.293.576.515.559 1.114-1.178.355-2.17.336-3.532.303-.438-.468-.505-.925-.558-1.728.493-.646.97-.945 1.742-1.267z"/><path fill="#C9CBCA" d="M70.183 54.308c-.246-.492-.257-.73-.32-1.32.178-.921.408-1.489.637-2.056.205.358.384.733.619 1.07.547.79 1.122 1.56 1.856 2.605-.738.163-1.647.059-2.792-.3z"/><path fill="#E1836F" d="M66.953 57.87c-.397-.178-.773-.687-1.061-1.516.806-.074 1.046.489 1.061 1.516z"/><path fill="#F6C4AC" d="M68.625 49.16c.085.155-.017.476-.34.94-.096-.163.028-.469.34-.94z"/><path fill="#E3EEF6" d="M81.982 71.23c.232-.324.427-.38.92-.361.067.371-.162.667-.66 1.064-.277-.078-.287-.257-.26-.703z"/><path fill="#BBBABE" d="M90.98 49.007c.65.405 1.955-.614 2.115.92.026.245-.196.686-.4.756-.897.31-1.453-.037-1.613-1.38-.076-.357-.072-.296-.102-.296z"/>
</svg>